 <svg  version="1.0" xmlns="http://www.w3.org/2000/svg"  width="1350.000000pt" height="1350.000000pt" viewBox="0 0 1350.000000 1350.000000"  preserveAspectRatio="xMidYMid meet">  <g transform="translate(0.000000,1350.000000) scale(0.100000,-0.100000)" fill="#ffffff" stroke="none"> <path d="M4094 9471 c-58 -15 -120 -70 -154 -137 -14 -27 -20 -58 -20 -107 0 -60 5 -77 42 -148 l41 -80 4 -502 c3 -276 6 -504 9 -506 2 -2 16 5 31 15 25 16 87 48 211 107 l42 21 0 276 c0 152 3 352 7 444 l6 168 39 46 c80 97 84 220 11 310 -53 65 -103 92 -176 97 -34 2 -76 1 -93 -4z"/> <path d="M9233 9471 c-40 -10 -95 -51 -126 -94 -71 -97 -59 -221 33 -336 l30 -37 2 -434 3 -434 35 -17 c19 -10 74 -36 122 -59 47 -22 92 -47 98 -55 36 -43 37 -27 42 504 l5 519 24 33 c49 68 59 97 59 164 0 94 -38 161 -127 219 -44 29 -141 42 -200 27z"/> <path d="M7137 9363 c-37 -13 -55 -26 -73 -55 l-24 -38 0 -420 c0 -442 0 -445 -47 -535 -20 -38 -75 -89 -127 -117 -59 -31 -203 -32 -262 -1 -53 28 -108 86 -136 143 -23 44 -23 53 -28 485 -5 423 -6 441 -26 475 -36 62 -113 84 -208 59 -126 -32 -207 -59 -259 -85 -16 -8 -33 -14 -38 -14 -14 0 -253 -112 -304 -143 -17 -11 -68 -42 -120 -74 -11 -7 -27 -15 -35 -19 -8 -4 -60 -41 -115 -83 -340 -254 -593 -548 -752 -874 -79 -161 -86 -180 -90 -257 -4 -58 -2 -67 19 -87 l24 -23 2192 0 c1479 0 2199 3 2212 10 30 16 50 52 50 90 0 32 -27 126 -49 168 -5 9 -24 48 -43 87 -168 352 -498 727 -840 952 -117 77 -115 76 -200 121 -138 74 -197 102 -212 102 -8 0 -17 4 -21 10 -3 5 -20 14 -38 19 -18 5 -57 19 -87 31 -30 12 -68 25 -85 30 -16 5 -43 13 -60 18 -16 6 -55 16 -85 22 -30 7 -62 13 -70 15 -8 2 -37 -4 -63 -12z"/> <path d="M4101 7735 c-209 -78 -370 -194 -484 -350 -62 -84 -70 -96 -97 -155 -12 -25 -28 -58 -35 -73 -8 -16 -15 -35 -15 -42 0 -8 -7 -36 -16 -62 -15 -42 -17 -115 -17 -594 1 -472 3 -556 17 -625 20 -94 41 -164 67 -221 10 -23 19 -44 19 -48 0 -11 85 -131 135 -190 115 -135 232 -226 400 -308 158 -77 190 -82 161 -29 -8 15 -22 43 -30 62 -8 19 -23 55 -34 80 -31 75 -57 159 -86 280 -38 162 -41 229 -41 920 0 687 5 793 40 950 8 36 15 76 15 90 1 14 7 36 15 50 8 14 14 35 15 47 0 12 6 37 14 55 42 97 66 161 66 174 0 20 -34 17 -109 -11z"/> <path d="M9267 7754 c-6 -6 10 -49 39 -107 8 -16 14 -35 14 -42 0 -8 6 -29 14 -47 34 -79 68 -236 87 -393 7 -62 13 -343 16 -735 4 -597 3 -644 -16 -780 -23 -170 -50 -291 -83 -380 -3 -8 -14 -37 -23 -65 -10 -27 -33 -78 -51 -113 -44 -81 -44 -97 -2 -88 44 9 207 90 282 141 170 114 311 272 397 445 37 73 44 95 75 240 24 113 24 122 24 631 0 428 -3 524 -15 565 -8 27 -15 57 -15 67 0 35 -93 212 -150 287 -72 93 -177 196 -251 243 -139 89 -316 157 -342 131z"/> <path d="M4424 7074 c-12 -3 -36 -21 -55 -40 l-34 -35 3 -537 c4 -517 5 -538 24 -570 11 -18 38 -42 59 -53 34 -17 45 -18 79 -8 44 13 98 61 105 93 4 20 8 145 21 715 7 305 2 350 -50 400 -26 25 -43 32 -82 35 -27 3 -58 2 -70 0z"/> <path d="M8932 7070 c-34 -14 -57 -41 -74 -85 -14 -35 -15 -104 -11 -520 2 -296 8 -496 15 -522 21 -82 98 -134 167 -112 48 15 89 55 101 99 5 19 9 259 10 543 0 555 2 537 -58 581 -29 22 -114 31 -150 16z"/> <path d="M5438 6925 c-186 -51 -321 -213 -344 -412 -7 -58 23 -182 61 -251 42 -78 126 -157 205 -194 57 -27 182 -50 226 -43 118 21 157 37 229 90 103 76 164 178 183 305 11 82 -1 183 -31 250 -38 84 -142 188 -227 227 -87 40 -213 52 -302 28z"/> <path d="M7815 6925 c-130 -33 -230 -114 -293 -238 -100 -199 -40 -439 143 -573 66 -48 96 -61 185 -78 82 -16 89 -16 165 2 97 23 164 59 228 121 48 46 60 63 92 131 95 200 34 430 -150 566 -101 75 -242 101 -370 69z"/> <path d="M4727 5339 c-12 -3 -56 -7 -97 -8 -41 -1 -80 -7 -87 -13 -29 -24 -10 -97 64 -248 114 -232 243 -410 448 -616 246 -246 511 -425 805 -544 30 -12 62 -25 70 -29 31 -16 248 -80 320 -95 41 -8 100 -20 130 -27 76 -16 546 -24 635 -10 146 23 292 52 345 69 248 81 242 78 415 163 235 116 431 255 610 434 258 256 348 380 489 670 58 118 73 176 57 217 l-10 26 -173 6 c-225 8 -3992 13 -4021 5z m2416 -602 c106 -80 101 -220 -10 -288 l-38 -24 -365 0 c-363 0 -365 0 -397 23 -53 37 -73 80 -73 154 0 62 2 68 39 109 35 40 44 44 97 50 33 4 206 6 385 5 l326 -1 36 -28z"/> </g> </svg> 