 <svg  version="1.0" xmlns="http://www.w3.org/2000/svg"  width="1350.000000pt" height="1350.000000pt" viewBox="0 0 1350.000000 1350.000000"  preserveAspectRatio="xMidYMid meet">  <g transform="translate(0.000000,1350.000000) scale(0.100000,-0.100000)" fill="#ffffff" stroke="none"> <path d="M4380 11521 c-110 -39 -230 -139 -278 -232 -87 -164 -83 -365 12 -513 75 -118 195 -206 316 -232 103 -23 236 -11 332 30 21 9 44 16 52 16 29 0 202 -154 445 -397 135 -134 250 -243 257 -243 7 0 57 26 111 58 54 32 119 68 146 81 26 12 47 29 47 37 0 39 -379 417 -674 672 -83 73 -106 98 -100 110 4 10 10 63 12 119 3 85 0 113 -17 162 -54 155 -154 262 -304 323 -64 26 -79 28 -191 27 -83 -1 -135 -7 -166 -18z"/> <path d="M9040 11524 c-155 -68 -249 -145 -296 -245 -57 -119 -56 -116 -52 -262 l3 -139 -30 -25 c-30 -25 -91 -79 -240 -210 -171 -152 -485 -484 -485 -513 0 -11 20 -28 53 -46 75 -40 98 -53 132 -74 17 -11 40 -24 52 -29 11 -5 24 -15 28 -20 16 -27 50 -2 166 122 186 198 484 471 544 499 16 7 32 5 61 -7 262 -113 562 -1 685 255 87 181 54 402 -83 551 -59 63 -107 94 -221 143 -51 22 -266 22 -317 0z"/> <path d="M6645 9895 c-188 -20 -337 -57 -515 -125 -30 -12 -67 -25 -81 -30 -45 -14 -231 -108 -287 -145 -30 -19 -56 -35 -58 -35 -3 0 -53 -36 -111 -80 -250 -188 -436 -407 -579 -680 -146 -282 -217 -675 -176 -980 24 -175 93 -440 124 -474 4 -6 8 -16 8 -23 0 -12 86 -192 113 -238 101 -167 164 -249 283 -369 120 -120 203 -183 474 -361 124 -81 237 -156 252 -166 15 -11 29 -19 32 -19 2 0 31 -18 64 -39 90 -60 274 -157 347 -184 92 -33 114 -39 204 -52 112 -18 180 -19 270 -4 160 25 268 68 446 176 53 32 103 63 113 68 9 6 45 29 80 53 35 23 65 42 67 42 3 0 249 165 380 255 217 149 376 308 512 514 59 88 152 268 186 356 48 127 44 116 92 303 8 31 16 80 19 107 3 28 10 82 16 120 14 102 12 215 -5 330 -41 271 -100 445 -224 668 -96 172 -294 402 -467 544 -180 147 -502 322 -689 373 -16 5 -43 13 -60 18 -230 79 -548 108 -830 77z m1213 -1046 c174 -26 304 -90 444 -217 54 -49 131 -156 168 -236 55 -119 70 -193 70 -357 0 -147 -6 -187 -47 -294 -45 -118 -134 -242 -225 -315 -56 -45 -167 -106 -238 -130 -58 -20 -190 -40 -268 -40 -109 0 -96 13 -197 -205 -20 -44 -53 -114 -72 -155 -49 -104 -87 -187 -111 -240 -103 -229 -150 -326 -164 -337 -8 -6 -139 -13 -339 -17 l-327 -7 -19 28 c-16 24 -51 94 -138 278 -8 17 -33 71 -56 120 -75 164 -91 199 -170 361 -42 89 -85 164 -94 168 -9 3 -51 6 -93 6 -81 0 -213 20 -272 40 -140 48 -327 193 -384 298 -96 177 -108 222 -113 422 -5 170 1 209 44 325 66 177 204 334 363 415 25 12 53 27 63 32 55 28 204 59 337 72 19 2 424 2 898 0 602 -2 887 -6 940 -15z"/> <path d="M5880 8396 c-135 -34 -228 -136 -256 -279 -33 -168 56 -331 215 -396 48 -20 204 -20 251 0 93 39 159 100 205 191 24 45 28 65 28 138 0 100 -20 157 -76 225 -94 112 -228 157 -367 121z"/> <path d="M7680 8395 c-107 -30 -188 -103 -229 -205 -23 -56 -26 -204 -5 -259 33 -87 117 -174 204 -211 22 -9 69 -15 130 -15 85 0 101 3 153 29 139 71 224 228 197 365 -23 117 -73 195 -162 253 -87 56 -189 72 -288 43z"/> <path d="M4450 8855 c-19 -7 -46 -14 -60 -14 -36 -2 -188 -80 -256 -133 -166 -128 -275 -300 -316 -498 -25 -124 -9 -339 33 -447 55 -141 172 -300 275 -375 112 -81 301 -158 389 -158 30 0 30 -3 2 84 -96 288 -117 418 -117 721 0 254 20 410 71 560 6 17 15 44 19 60 13 46 39 113 60 158 11 23 20 44 20 49 0 13 -81 8 -120 -7z"/> <path d="M9190 8854 c0 -8 9 -39 21 -67 63 -157 94 -264 123 -432 22 -123 22 -506 1 -625 -32 -177 -56 -274 -90 -370 -26 -71 -38 -120 -32 -127 20 -19 232 51 332 111 160 95 295 258 352 425 27 78 53 221 53 285 -1 66 -29 215 -54 283 -90 244 -318 448 -572 513 -95 25 -134 26 -134 4z"/> <path d="M4876 6293 c-58 -87 -131 -194 -161 -238 -78 -112 -147 -213 -165 -240 -8 -13 -96 -143 -195 -290 -99 -146 -187 -277 -195 -290 -16 -26 -255 -379 -384 -568 -45 -65 -88 -129 -96 -142 -8 -13 -64 -97 -125 -187 -60 -89 -114 -170 -120 -179 -5 -9 -26 -43 -45 -75 -33 -54 -84 -156 -115 -229 -21 -50 -36 -103 -56 -198 -63 -302 44 -620 284 -843 145 -135 275 -195 495 -229 108 -17 117 -17 220 0 249 41 401 112 588 273 82 71 157 153 236 257 51 68 131 184 141 205 4 8 16 29 27 45 52 81 263 491 334 648 14 31 37 81 50 110 13 28 40 93 61 142 45 112 63 152 81 188 8 16 14 36 14 46 0 9 6 25 13 36 8 11 16 29 20 40 3 11 15 45 27 75 63 162 160 457 195 590 9 36 23 88 30 115 30 111 45 182 61 281 l6 40 -143 87 c-79 48 -153 93 -163 100 -37 24 -322 214 -371 247 -67 46 -287 210 -300 224 -32 35 -125 116 -133 116 -6 0 -58 -71 -116 -157z"/> <path d="M8695 6402 c-65 -62 -258 -210 -399 -307 -34 -23 -97 -66 -141 -97 -119 -81 -268 -182 -287 -193 -9 -5 -50 -30 -90 -54 -40 -25 -86 -51 -102 -59 -26 -14 -28 -18 -22 -56 16 -99 31 -169 61 -281 7 -27 21 -79 30 -115 32 -123 122 -397 179 -547 20 -55 42 -113 60 -160 23 -64 48 -126 63 -160 31 -72 42 -100 63 -153 12 -30 33 -80 47 -110 14 -30 33 -73 43 -95 108 -238 221 -462 287 -567 12 -21 23 -40 23 -42 0 -3 14 -25 30 -49 17 -25 30 -47 30 -50 0 -10 90 -139 155 -222 159 -204 348 -358 530 -430 135 -54 338 -92 424 -81 291 41 475 129 628 303 62 70 153 212 153 237 0 8 4 17 9 20 25 16 81 256 81 350 0 124 -46 314 -110 451 -31 65 -118 208 -219 358 -58 87 -111 166 -116 175 -25 42 -73 112 -112 164 -24 31 -43 59 -43 61 0 3 -36 58 -80 124 -159 234 -355 524 -370 548 -16 25 -122 181 -251 370 -45 66 -141 208 -214 315 -72 107 -161 238 -196 290 -40 59 -72 96 -84 98 -12 1 -36 -13 -60 -36z"/> <path d="M6536 5489 c-2 -8 -11 -34 -20 -59 -9 -25 -16 -54 -16 -64 0 -10 -7 -39 -14 -65 -8 -25 -22 -71 -30 -101 -14 -51 -31 -112 -62 -220 -7 -25 -20 -70 -28 -100 -9 -30 -23 -79 -32 -108 -12 -41 -13 -57 -5 -65 9 -9 155 -13 534 -15 287 -1 532 0 545 3 26 6 28 30 8 95 -8 25 -22 72 -32 105 -9 33 -23 78 -30 100 -6 22 -20 69 -29 105 -9 36 -23 83 -29 105 -14 44 -34 114 -64 220 -16 57 -23 70 -38 68 -11 -2 -57 -9 -104 -15 -146 -22 -462 -12 -532 17 -11 4 -19 2 -22 -6z"/> <path d="M6134 4228 c-11 -13 -33 -48 -48 -78 -131 -257 -156 -310 -156 -328 0 -12 10 -28 22 -36 20 -14 124 -16 923 -16 799 0 903 2 923 16 26 18 28 36 8 72 -35 64 -166 342 -166 351 0 5 -10 17 -22 25 -20 14 -107 16 -743 16 l-722 0 -19 -22z"/> <path d="M5751 3340 c-50 -12 -83 -41 -100 -88 -13 -36 -13 -49 -2 -94 29 -114 117 -227 210 -268 42 -19 73 -20 1013 -20 l970 0 60 32 c62 33 106 79 155 163 44 75 58 135 43 182 -17 50 -27 63 -75 84 -38 18 -97 19 -1140 18 -605 -1 -1115 -5 -1134 -9z"/> <path d="M6077 2413 c-25 -25 1 -66 179 -283 60 -73 144 -150 179 -164 32 -14 97 -16 421 -16 275 0 397 4 431 13 59 15 157 109 287 272 94 118 120 160 111 175 -7 11 -1597 14 -1608 3z"/> </g> </svg> 