<?xml version="1.0" standalone="no"?>
<!DOCTYPE svg PUBLIC "-//W3C//DTD SVG 20010904//EN"
 "http://www.w3.org/TR/2001/REC-SVG-20010904/DTD/svg10.dtd">
<svg version="1.0" xmlns="http://www.w3.org/2000/svg"
 width="1350.000000pt" height="1350.000000pt" viewBox="0 0 1350.000000 1350.000000"
 preserveAspectRatio="xMidYMid meet">
<metadata>
Created by potrace 1.10, written by Peter Selinger 2001-2011
</metadata>
<g transform="translate(0.000000,1350.000000) scale(0.100000,-0.100000)"
fill="#000000" stroke="none">
<path d="M5015 10525 c-91 -18 -154 -53 -221 -121 -101 -102 -141 -215 -131
-369 7 -92 30 -155 90 -234 56 -75 93 -107 160 -139 40 -19 57 -33 58 -47 3
-59 -2 -268 -7 -276 -3 -5 -40 -9 -82 -9 -113 -1 -255 -17 -352 -40 -166 -40
-150 -36 -265 -77 -271 -99 -539 -285 -746 -518 -44 -50 -177 -235 -211 -295
-78 -136 -145 -290 -181 -420 -81 -285 -79 -263 -85 -1417 -2 -563 -8 -1023
-13 -1023 -4 0 -34 16 -66 35 -77 46 -176 144 -205 203 l-23 47 1 658 0 657
-20 -6 c-43 -13 -172 -139 -250 -244 -95 -127 -131 -199 -175 -345 -95 -314
-24 -657 194 -935 65 -82 237 -240 263 -240 6 0 30 -13 54 -29 46 -31 168 -91
185 -91 6 0 22 -9 37 -21 26 -20 26 -22 26 -146 0 -193 47 -460 106 -601 8
-18 14 -37 14 -42 0 -17 84 -194 127 -270 125 -219 304 -423 500 -571 50 -38
94 -69 98 -69 3 0 21 -11 38 -24 43 -33 187 -107 289 -149 105 -43 208 -75
368 -114 71 -17 182 -18 2065 -21 2173 -3 2180 -3 2385 55 203 57 250 76 475
191 87 45 242 161 349 261 149 141 294 340 389 535 51 104 62 130 100 231 63
170 97 368 97 561 0 139 14 194 49 194 19 0 80 30 244 119 116 64 268 217 354
356 19 30 78 155 95 200 91 235 84 474 -19 724 -46 110 -75 161 -144 252 -78
102 -227 239 -261 239 -5 0 -8 -297 -8 -660 0 -718 2 -693 -57 -761 -48 -56
-113 -113 -154 -135 -21 -12 -46 -27 -54 -34 -10 -8 -19 -10 -25 -4 -5 5 -11
444 -13 1044 -3 1058 -3 1061 -43 1250 -25 119 -46 183 -109 333 -122 295
-312 550 -550 741 -124 99 -175 132 -334 216 -77 41 -267 115 -331 130 -19 4
-57 13 -85 20 -27 7 -75 18 -105 26 -30 7 -121 16 -202 20 -118 5 -150 10
-160 23 -10 12 -12 50 -8 150 l5 135 60 30 c61 32 168 130 185 169 6 12 14 29
19 37 36 60 46 107 45 215 -1 101 -4 115 -33 176 -44 93 -133 187 -212 225
-166 79 -344 65 -486 -38 -63 -46 -123 -123 -154 -198 -20 -47 -23 -73 -23
-175 0 -119 0 -121 38 -197 27 -55 58 -96 107 -145 l69 -68 0 -156 c0 -120 -3
-159 -14 -168 -10 -8 -381 -10 -1392 -9 l-1379 3 -3 166 -2 166 69 71 c111
113 158 238 145 387 -11 127 -80 245 -188 323 -65 48 -95 61 -176 78 -76 16
-113 16 -195 -1z m3733 -2120 c323 -74 577 -265 765 -577 26 -43 47 -83 47
-91 0 -7 6 -21 13 -32 8 -11 17 -29 20 -40 3 -11 15 -47 27 -80 49 -138 50
-176 50 -1299 0 -873 -3 -1069 -15 -1156 -17 -121 -49 -239 -84 -308 -38 -76
-52 -101 -70 -132 -11 -19 -24 -42 -28 -50 -3 -8 -26 -41 -50 -72 -187 -245
-433 -396 -718 -440 -35 -6 -820 -12 -1880 -15 -1867 -5 -1993 -3 -2125 34
-326 89 -590 310 -738 617 -66 137 -86 195 -116 349 -14 67 -16 221 -16 1162
0 942 2 1095 16 1162 63 317 228 585 477 775 86 66 213 134 297 160 161 49 29
46 2113 47 1711 1 1956 -1 2015 -14z"/>
<path d="M4860 7378 c-159 -27 -259 -77 -366 -183 -101 -100 -162 -203 -184
-310 -4 -22 -13 -65 -20 -95 -18 -78 3 -255 40 -329 39 -80 58 -114 93 -161
51 -69 67 -85 142 -141 69 -51 94 -67 115 -75 8 -3 29 -12 45 -19 79 -35 150
-46 269 -43 68 2 121 7 122 13 2 6 -18 24 -43 40 -94 60 -139 173 -109 274 21
71 56 115 119 151 149 85 336 -10 378 -193 8 -32 16 -57 19 -57 21 1 92 96
126 170 45 98 57 163 58 290 0 127 -10 173 -58 280 -46 101 -184 262 -251 291
-11 5 -35 18 -54 30 -52 31 -108 48 -210 64 -104 16 -149 17 -231 3z"/>
<path d="M8390 7375 c-85 -15 -132 -32 -205 -74 -85 -49 -157 -113 -214 -190
-81 -111 -105 -169 -126 -314 -28 -189 17 -358 138 -514 101 -130 201 -197
366 -247 70 -21 278 -21 336 -1 22 8 46 15 53 15 23 0 155 70 210 111 106 80
230 267 254 383 31 153 31 193 0 341 -22 103 -105 230 -216 331 -152 139 -377
200 -596 159z m577 -263 c63 -26 129 -86 153 -138 49 -112 1 -246 -110 -309
-27 -15 -54 -20 -121 -20 -77 0 -90 3 -127 28 -134 88 -156 263 -48 372 79 79
167 102 253 67z"/>
<path d="M6175 5904 c-83 -31 -125 -98 -125 -201 0 -200 179 -441 402 -542
310 -141 692 -38 888 238 46 65 86 155 104 233 17 74 17 79 0 134 -23 72 -60
116 -120 139 -41 16 -53 16 -100 5 -79 -19 -154 -102 -154 -169 0 -40 -53
-131 -101 -175 -55 -49 -147 -86 -213 -86 -139 1 -282 106 -317 235 -31 116
-71 165 -152 189 -64 19 -61 19 -112 0z"/>
<path d="M4630 5600 c-76 -10 -135 -52 -182 -129 -18 -29 -22 -50 -22 -121 0
-82 1 -87 38 -142 31 -47 49 -63 101 -89 54 -26 71 -30 117 -26 78 7 126 27
173 73 79 76 104 179 66 272 -49 122 -156 182 -291 162z"/>
<path d="M8779 5599 c-202 -22 -282 -290 -129 -437 97 -95 242 -93 350 4 58
52 80 103 80 180 0 170 -123 273 -301 253z"/>
</g>
</svg>
