 <svg  version="1.0" xmlns="http://www.w3.org/2000/svg"  width="1350.000000pt" height="1350.000000pt" viewBox="0 0 1350.000000 1350.000000"  preserveAspectRatio="xMidYMid meet">  <g transform="translate(0.000000,1350.000000) scale(0.100000,-0.100000)" fill="#ffffff" stroke="none"> <path d="M3750 10823 c-120 -11 -320 -83 -344 -125 -9 -15 -4 -24 29 -50 107 -88 194 -209 244 -341 10 -24 13 -25 138 -29 128 -3 128 -3 217 -47 146 -71 261 -200 313 -351 33 -92 36 -133 42 -485 5 -309 8 -360 21 -362 8 -2 26 12 38 31 41 61 263 280 380 376 l112 93 0 106 c0 376 -188 756 -486 983 -65 50 -190 119 -258 144 -127 46 -312 70 -446 57z"/> <path d="M9545 10818 c-133 -9 -186 -25 -344 -102 -189 -91 -396 -294 -490 -478 -18 -35 -36 -70 -40 -78 -58 -109 -98 -277 -111 -464 -11 -161 -11 -161 73 -227 115 -91 251 -219 352 -331 59 -65 111 -115 116 -112 5 3 9 160 9 362 1 285 4 365 15 397 8 22 15 48 15 57 0 26 59 147 93 193 90 119 173 182 297 226 40 14 81 19 161 19 90 0 108 3 122 18 10 10 17 24 17 30 0 18 61 133 94 177 17 22 63 72 103 111 l74 70 -23 21 c-35 31 -133 73 -217 93 -91 21 -193 27 -316 18z"/> <path d="M2860 10501 c-141 -53 -230 -148 -266 -286 -42 -154 23 -343 149 -433 85 -60 141 -77 257 -76 95 0 111 3 165 29 66 32 161 120 189 175 26 51 56 159 56 201 0 44 -24 127 -54 187 -25 51 -114 144 -159 167 -106 54 -249 70 -337 36z"/> <path d="M10384 10501 c-113 -36 -210 -125 -260 -240 -20 -45 -24 -70 -24 -152 0 -90 3 -105 31 -164 43 -91 112 -163 196 -205 65 -33 73 -34 178 -34 98 1 116 4 168 27 208 96 303 352 205 552 -89 182 -306 277 -494 216z"/> <path d="M6415 9604 c-358 -62 -689 -182 -947 -342 -126 -79 -163 -103 -233 -156 -221 -165 -375 -321 -572 -577 -29 -37 -53 -70 -53 -73 0 -3 -19 -33 -42 -68 -24 -35 -54 -83 -67 -108 -14 -25 -29 -54 -35 -65 -6 -11 -16 -27 -22 -35 -6 -8 -21 -40 -34 -70 -12 -30 -32 -75 -43 -100 -44 -98 -75 -191 -132 -392 -30 -110 -55 -301 -71 -538 -6 -87 0 -169 26 -395 36 -316 188 -746 356 -1006 16 -24 33 -52 39 -61 19 -31 89 -133 95 -138 3 -3 30 -36 60 -75 76 -99 326 -347 445 -441 55 -44 140 -106 190 -139 96 -64 99 -66 172 -106 104 -57 141 -76 218 -108 44 -18 94 -39 110 -46 42 -18 140 -49 275 -88 317 -90 727 -102 1085 -31 76 16 109 24 235 60 116 34 233 81 395 161 95 46 104 52 173 96 24 15 45 27 47 27 2 0 34 21 72 46 224 153 488 404 642 611 44 59 85 113 91 120 5 7 10 14 10 17 0 2 17 31 38 63 32 48 101 169 133 233 72 144 155 371 188 510 5 19 14 55 20 80 20 84 40 234 52 391 16 224 -8 522 -57 695 -8 28 -14 57 -14 66 0 14 -86 281 -113 348 -25 65 -94 212 -117 250 -5 8 -36 62 -70 120 -102 173 -220 321 -404 505 -94 94 -198 191 -231 217 -65 49 -271 190 -295 201 -8 4 -31 17 -50 29 -51 31 -286 148 -298 148 -5 0 -40 13 -78 29 -136 56 -302 99 -525 135 -124 21 -546 20 -664 0z m-805 -1623 c149 -36 255 -100 360 -217 129 -144 201 -398 155 -550 -8 -27 -15 -57 -15 -66 0 -26 -56 -141 -100 -207 -39 -58 -96 -116 -165 -168 -44 -33 -166 -93 -190 -93 -8 0 -40 -7 -72 -15 -31 -8 -85 -15 -118 -15 -33 0 -87 7 -118 15 -32 8 -64 15 -72 15 -27 0 -150 63 -205 105 -145 112 -231 259 -259 445 -13 87 4 239 37 327 118 313 453 500 762 424z m2568 0 c43 -10 87 -23 98 -29 10 -5 39 -20 64 -32 106 -54 223 -173 278 -284 58 -116 72 -177 72 -316 0 -123 -8 -169 -45 -255 -7 -16 -16 -37 -19 -45 -17 -43 -87 -133 -150 -193 -48 -45 -156 -117 -176 -117 -5 0 -24 -6 -42 -14 -52 -22 -171 -46 -229 -46 -84 1 -273 50 -301 78 -7 7 -16 12 -21 12 -20 0 -146 105 -188 158 -50 61 -106 166 -133 247 -22 69 -22 277 0 354 42 144 131 277 239 356 175 129 362 172 553 126z m-512 -2202 c29 -15 47 -67 38 -105 -14 -59 -128 -207 -207 -271 -68 -54 -122 -74 -217 -79 -161 -8 -985 -10 -1081 -3 -125 9 -162 28 -270 140 -134 139 -183 255 -128 305 30 27 102 29 1033 27 622 -1 814 -4 832 -14z"/> <path d="M1639 7641 c-16 -16 -29 -35 -29 -43 0 -7 62 -74 138 -148 367 -358 386 -375 428 -388 31 -9 211 -12 712 -12 594 0 676 2 712 16 46 19 46 18 60 164 22 219 29 276 40 306 6 18 10 54 8 80 l-3 49 -1018 3 -1018 2 -30 -29z"/> <path d="M9783 7654 c-3 -9 -1 -39 5 -67 26 -126 42 -240 47 -341 7 -137 20 -171 72 -185 55 -16 1348 -15 1411 1 43 10 70 34 300 261 274 272 281 283 226 326 -27 21 -30 21 -1041 21 -916 0 -1014 -2 -1020 -16z"/> <path d="M2595 6563 c-11 -3 -28 -12 -37 -21 -41 -36 -28 -54 213 -290 127 -124 245 -235 262 -246 30 -18 51 -19 397 -17 201 1 369 6 373 10 5 5 -7 55 -26 112 -40 122 -58 197 -83 334 -9 55 -20 103 -23 107 -7 7 -1046 18 -1076 11z"/> <path d="M9895 6563 c-84 -7 -83 -6 -90 -80 -12 -125 -80 -397 -113 -450 -8 -12 -11 -27 -7 -33 4 -7 131 -10 379 -10 l372 0 49 34 c69 50 455 436 462 463 8 34 -21 73 -55 73 -405 4 -967 6 -997 3z"/> <path d="M3920 5514 c-30 -25 -183 -170 -339 -322 -156 -153 -290 -281 -298 -286 -9 -5 -38 0 -76 15 -85 31 -229 31 -301 0 -158 -69 -245 -202 -246 -376 0 -164 84 -304 227 -376 66 -33 71 -34 188 -34 208 0 188 -15 830 625 160 159 302 303 318 319 30 32 35 66 13 90 -44 52 -171 254 -214 344 -13 26 -29 47 -35 47 -7 0 -37 -21 -67 -46z"/> <path d="M9480 5509 c-17 -29 -36 -61 -41 -73 -11 -25 -19 -38 -88 -141 -86 -127 -95 -140 -105 -146 -17 -13 7 -50 87 -131 279 -285 801 -789 847 -819 86 -56 136 -70 242 -70 124 1 212 35 288 111 206 209 152 547 -107 670 -63 30 -76 33 -168 33 -87 0 -107 -4 -154 -27 -30 -14 -57 -26 -59 -26 -5 0 -149 139 -437 420 -115 113 -224 215 -242 228 l-31 22 -32 -51z"/> <path d="M4509 4621 l-114 -109 -5 -638 c-4 -458 -8 -646 -17 -665 -17 -39 -61 -69 -99 -69 -84 0 -231 -104 -272 -193 -70 -150 -69 -265 4 -407 26 -50 111 -132 164 -157 64 -31 147 -53 194 -53 100 0 246 63 325 140 132 129 191 249 227 465 12 74 15 220 16 809 l2 718 -55 51 c-30 27 -93 87 -141 133 -48 46 -93 84 -101 84 -8 0 -66 -49 -128 -109z"/> <path d="M8790 4678 c-30 -28 -92 -86 -137 -128 l-83 -78 0 -759 c0 -644 2 -767 15 -809 8 -27 15 -59 15 -71 0 -37 48 -142 105 -233 102 -160 279 -270 435 -270 47 0 142 27 197 55 151 77 242 280 202 453 -37 158 -177 288 -329 306 -34 4 -52 12 -72 36 l-28 30 0 619 c0 340 -3 632 -6 649 -7 34 -20 50 -145 170 -48 45 -93 82 -100 82 -8 0 -39 -24 -69 -52z"/> <path d="M5457 4173 c-4 -3 -7 -186 -7 -405 0 -440 -5 -404 67 -495 76 -95 246 -197 391 -233 89 -23 87 -30 87 308 0 158 -2 363 -5 457 l-5 169 -45 17 c-25 10 -74 27 -110 38 -116 36 -153 52 -253 102 -101 51 -109 54 -120 42z"/> <path d="M7905 4125 c-60 -30 -114 -55 -118 -55 -5 0 -23 -6 -40 -14 -18 -7 -52 -20 -77 -29 -25 -8 -73 -25 -107 -37 l-63 -22 0 -452 c1 -523 -4 -498 82 -476 145 36 316 135 399 228 72 82 71 77 69 452 -2 344 -8 451 -25 456 -5 2 -59 -21 -120 -51z"/> <path d="M6533 3878 c-2 -5 -7 -153 -10 -330 -6 -355 -2 -393 40 -365 12 8 53 22 92 32 79 20 144 16 245 -15 50 -15 66 -17 73 -7 10 14 4 674 -6 684 -10 9 -428 10 -434 1z"/> <path d="M6665 2906 c-102 -21 -175 -68 -239 -154 -147 -201 -73 -490 156 -609 49 -25 62 -27 168 -27 142 1 186 18 276 108 72 72 95 114 119 218 17 73 17 79 1 150 -42 171 -164 290 -327 317 -76 13 -75 13 -154 -3z"/> </g> </svg> 