 <svg  version="1.0" xmlns="http://www.w3.org/2000/svg"  width="1350.000000pt" height="1350.000000pt" viewBox="0 0 1350.000000 1350.000000"  preserveAspectRatio="xMidYMid meet">  <g transform="translate(0.000000,1350.000000) scale(0.100000,-0.100000)" fill="#ffffff" stroke="none"> <path d="M6575 10644 c-86 -5 -279 -32 -355 -49 -36 -8 -73 -15 -84 -15 -10 0 -39 -7 -65 -15 -25 -8 -75 -22 -111 -31 -80 -20 -152 -42 -205 -61 -84 -32 -121 -46 -150 -59 -16 -7 -57 -25 -90 -39 -75 -33 -199 -96 -245 -124 -19 -11 -44 -25 -56 -30 -12 -5 -48 -27 -80 -48 -32 -21 -67 -42 -76 -48 -38 -23 -156 -104 -169 -117 -8 -7 -37 -31 -64 -53 -121 -96 -326 -298 -439 -432 -67 -81 -209 -280 -229 -323 -4 -8 -16 -28 -26 -45 -50 -78 -137 -246 -177 -345 -20 -47 -41 -98 -48 -115 -16 -36 -30 -79 -57 -165 -12 -36 -27 -83 -35 -105 -8 -23 -14 -49 -14 -59 0 -11 -6 -42 -14 -70 -37 -131 -59 -316 -38 -316 5 0 32 11 60 25 29 14 56 25 62 25 5 0 24 6 42 14 206 88 510 100 758 29 405 -114 724 -436 823 -828 58 -230 45 -485 -38 -715 -20 -56 -92 -199 -109 -220 -8 -8 -15 -20 -17 -27 -2 -6 -22 -33 -44 -60 -166 -201 -358 -333 -575 -396 -152 -44 -193 -49 -387 -45 -188 4 -218 9 -358 53 -107 33 -100 33 -98 3 4 -65 232 -479 368 -672 l35 -48 0 -604 0 -603 27 -26 c15 -14 31 -25 36 -25 4 0 72 -31 150 -69 78 -37 183 -87 232 -111 90 -43 234 -111 420 -200 55 -27 132 -63 170 -80 39 -18 121 -56 183 -86 192 -92 334 -160 427 -204 50 -24 149 -71 220 -105 72 -34 175 -84 230 -110 55 -26 145 -69 200 -95 229 -109 295 -140 305 -140 5 0 38 13 72 29 35 15 225 97 423 181 198 84 379 161 403 172 43 20 68 54 83 113 4 17 17 55 29 85 12 30 25 69 30 85 23 85 60 165 75 165 5 0 259 0 562 0 304 0 610 3 679 6 119 7 128 9 150 33 13 14 27 42 30 61 3 19 12 53 19 75 7 22 21 67 30 100 10 33 23 78 30 100 25 82 64 215 91 310 9 33 22 78 29 100 7 22 20 69 30 105 9 36 23 85 30 110 8 25 21 72 31 105 9 33 23 78 29 100 13 40 36 120 61 205 33 116 48 168 59 205 7 22 20 66 29 98 29 104 49 171 61 212 7 22 20 65 28 95 28 99 50 174 62 215 7 22 21 67 30 100 10 33 25 80 33 105 21 60 20 155 -2 227 -10 32 -24 78 -31 103 -18 65 -46 159 -61 205 -6 22 -20 69 -29 105 -9 36 -23 83 -30 105 -7 22 -20 67 -30 100 -9 33 -21 74 -27 90 -30 89 -31 151 -3 210 27 58 64 142 160 370 54 127 106 249 117 273 27 57 19 111 -37 272 -7 19 -19 58 -28 85 -54 178 -81 264 -92 295 -7 19 -20 62 -30 95 -25 84 -75 243 -90 285 -7 19 -20 62 -30 95 -9 33 -23 76 -30 95 -7 19 -21 62 -30 95 -10 33 -22 71 -28 85 -5 14 -13 41 -17 60 -5 19 -14 51 -20 70 -31 86 -38 108 -54 160 -32 107 -64 205 -76 232 -10 21 -46 44 -164 102 -195 95 -412 200 -551 266 -60 29 -184 88 -275 132 -319 155 -439 211 -555 258 -44 17 -93 37 -110 44 -43 18 -95 36 -130 46 -16 4 -41 12 -55 18 -14 5 -54 18 -90 27 -36 9 -87 23 -115 30 -66 18 -189 43 -245 50 -25 3 -67 10 -95 15 -53 10 -527 20 -630 14z m520 -439 c133 -21 248 -43 315 -62 30 -8 80 -22 110 -30 30 -9 70 -22 88 -29 18 -8 39 -14 46 -14 12 0 46 -13 191 -75 80 -34 185 -82 335 -152 47 -22 92 -43 100 -47 8 -3 22 -10 30 -15 8 -6 42 -22 75 -36 33 -15 107 -50 165 -77 217 -104 351 -167 470 -221 145 -65 187 -87 197 -99 5 -7 24 -60 42 -118 18 -58 39 -121 46 -140 7 -19 21 -62 30 -95 10 -33 23 -76 30 -95 7 -19 20 -62 30 -95 37 -126 48 -161 61 -193 8 -18 14 -40 14 -48 0 -8 14 -57 30 -107 17 -51 37 -114 45 -142 8 -27 29 -93 45 -145 17 -52 38 -120 47 -150 9 -30 22 -73 29 -95 31 -102 36 -124 30 -134 -8 -13 -1623 -16 -1643 -3 -11 7 -37 79 -68 192 -22 82 -44 156 -57 195 -5 17 -14 46 -18 65 -5 19 -18 67 -30 105 -12 39 -25 86 -30 105 -5 19 -16 58 -24 85 -36 119 -58 192 -66 225 -5 19 -18 67 -30 105 -12 39 -25 84 -30 100 -5 17 -18 62 -30 100 -12 39 -25 86 -29 105 -5 19 -21 70 -35 113 -14 43 -26 84 -26 92 0 22 -48 73 -109 115 -31 21 -121 86 -201 144 -155 113 -292 211 -460 331 -274 195 -300 215 -300 234 0 16 33 18 265 20 153 1 249 -4 320 -14z m-1115 -215 c47 -32 121 -84 165 -114 44 -31 112 -78 150 -105 39 -28 106 -75 150 -106 44 -31 118 -83 165 -116 47 -33 114 -80 150 -105 36 -24 106 -74 155 -109 50 -35 128 -90 173 -121 87 -60 132 -108 132 -140 0 -10 6 -39 14 -64 8 -25 22 -72 32 -105 9 -33 22 -76 29 -95 20 -56 27 -108 16 -115 -6 -3 -21 0 -33 6 -13 7 -39 16 -58 20 -19 4 -60 15 -90 25 -30 9 -75 22 -100 30 -129 39 -188 56 -220 64 -19 5 -66 18 -105 30 -38 12 -86 25 -105 30 -19 4 -48 13 -65 18 -16 6 -55 18 -85 26 -30 9 -102 30 -160 46 -58 17 -127 38 -155 45 -87 25 -158 45 -210 60 -52 15 -124 36 -210 60 -27 8 -97 28 -155 45 -116 34 -182 52 -267 76 -32 9 -71 20 -88 26 -16 5 -46 14 -65 18 -53 13 -132 37 -163 49 -16 6 -39 11 -53 11 -65 0 -31 47 152 211 30 26 177 136 206 154 9 6 40 26 70 46 85 58 270 156 433 230 87 39 97 38 195 -31z m-1170 -1044 c25 -8 72 -22 105 -32 215 -61 267 -76 310 -90 22 -6 69 -20 105 -29 73 -20 139 -38 220 -61 30 -9 75 -22 100 -29 25 -7 68 -20 95 -28 28 -8 75 -21 105 -30 30 -8 82 -23 115 -33 110 -31 149 -42 210 -59 33 -9 80 -23 105 -30 25 -7 72 -20 105 -30 33 -9 80 -23 105 -30 25 -7 72 -20 105 -30 176 -50 190 -57 159 -80 -21 -16 -259 -179 -302 -207 -68 -44 -84 -43 -257 18 -23 8 -48 14 -57 14 -10 0 -32 6 -50 14 -31 13 -74 25 -158 46 -19 4 -48 13 -65 18 -16 6 -57 18 -90 28 -33 9 -78 23 -100 29 -22 7 -66 20 -97 29 -56 15 -122 34 -218 62 -116 33 -168 48 -205 59 -48 15 -141 41 -215 62 -30 8 -75 21 -100 28 -25 7 -58 16 -73 19 -17 4 -31 16 -37 32 -11 27 -14 312 -4 338 8 20 26 20 84 2z m2627 -704 c11 -7 34 -72 69 -192 8 -30 21 -75 29 -100 37 -128 39 -139 19 -161 -10 -11 -28 -25 -40 -32 -13 -7 -76 -48 -141 -93 -177 -120 -541 -367 -568 -384 -13 -8 -123 -82 -245 -165 -122 -82 -229 -154 -238 -160 -10 -5 -32 -20 -50 -33 -65 -47 -65 -47 -69 248 -2 146 0 270 4 276 4 5 143 99 308 209 165 109 344 228 398 264 54 36 106 71 115 76 9 6 85 55 167 110 83 55 155 102 160 104 6 2 21 12 34 22 26 21 31 22 48 11z m413 -916 c0 -8 -4 -17 -9 -20 -21 -13 -79 -116 -95 -169 -28 -90 -19 -213 21 -297 52 -106 141 -182 268 -226 180 -63 418 43 507 225 31 63 32 71 32 186 0 130 -7 153 -77 252 -16 23 -26 46 -23 52 5 8 162 11 517 11 495 0 509 -1 509 -19 0 -11 -6 -32 -14 -48 -111 -220 -121 -254 -95 -320 6 -15 15 -44 19 -63 5 -19 13 -48 18 -65 10 -29 17 -54 57 -190 10 -33 23 -78 30 -100 6 -22 20 -67 29 -100 53 -185 77 -265 94 -312 18 -52 12 -121 -17 -193 -13 -30 -27 -70 -32 -87 l-10 -33 -651 0 -650 0 -45 30 c-24 17 -46 30 -48 30 -3 0 -34 20 -71 45 -36 25 -68 45 -71 45 -3 0 -22 14 -43 30 -21 17 -41 30 -45 30 -4 0 -24 13 -44 29 -20 15 -40 30 -46 32 -5 2 -71 44 -145 93 -231 152 -304 201 -322 211 -9 6 -50 33 -90 60 -40 28 -80 53 -88 57 -49 23 -365 247 -365 259 0 8 72 62 160 122 242 162 448 300 467 312 9 5 61 40 115 77 l98 67 78 1 c60 0 77 -3 77 -14z m-1380 -875 c14 -9 27 -18 30 -21 6 -7 240 -163 255 -170 6 -3 51 -32 100 -64 50 -33 113 -73 140 -91 28 -18 97 -63 155 -100 58 -37 121 -78 140 -90 85 -55 436 -285 551 -362 166 -110 165 -108 145 -170 -8 -26 -22 -77 -31 -113 -37 -148 -51 -185 -69 -182 -15 3 -138 70 -186 102 -8 6 -24 15 -35 20 -11 6 -33 19 -50 30 -16 11 -39 24 -50 30 -11 6 -33 19 -50 30 -16 11 -37 23 -45 27 -8 4 -47 26 -86 50 -39 24 -74 43 -77 43 -4 0 -23 12 -44 26 -21 14 -47 30 -58 35 -11 5 -33 18 -50 29 -16 11 -39 24 -50 30 -11 6 -36 20 -55 31 -119 72 -297 176 -310 182 -8 4 -28 16 -45 27 -16 11 -39 24 -50 30 -11 6 -36 20 -55 31 -19 12 -100 60 -179 108 -79 47 -152 91 -163 97 -41 24 -47 45 -48 162 0 62 5 122 10 132 10 18 159 122 190 132 17 6 35 1 70 -21z m-717 -592 c9 -34 8 -703 -1 -717 -8 -11 -101 30 -217 97 -16 10 -77 42 -135 73 -58 31 -130 70 -160 87 -30 18 -66 37 -80 44 -31 15 -41 28 -32 43 6 10 199 144 208 144 1 0 31 19 66 42 35 24 70 47 80 53 116 71 197 122 217 137 31 24 47 23 54 -3z m557 -382 c30 -16 62 -36 71 -43 8 -8 18 -14 22 -14 6 0 185 -103 227 -130 8 -6 24 -14 35 -19 11 -5 37 -21 58 -35 21 -14 40 -26 43 -26 4 0 181 -103 224 -130 8 -6 24 -15 35 -20 11 -6 34 -19 50 -29 17 -11 48 -29 70 -41 22 -12 59 -35 83 -51 24 -16 45 -29 47 -29 3 0 49 -26 102 -58 54 -32 105 -61 113 -65 8 -4 29 -16 45 -27 17 -11 37 -23 45 -27 8 -4 33 -19 55 -33 72 -45 80 -50 102 -59 32 -15 42 -38 31 -80 -22 -84 -40 -149 -54 -192 -8 -26 -14 -55 -14 -65 -1 -20 -33 -121 -42 -130 -5 -5 -99 42 -363 182 -66 34 -156 82 -200 104 -44 23 -120 63 -170 89 -107 57 -271 143 -450 236 -206 107 -239 126 -257 147 -16 18 -18 48 -18 297 0 153 3 281 7 284 9 10 39 0 103 -36z m3135 -126 c3 -6 -4 -38 -15 -73 -11 -35 -27 -88 -35 -118 -9 -30 -23 -76 -31 -101 -7 -26 -14 -54 -14 -62 0 -32 -37 -37 -254 -37 -234 0 -243 -2 -314 -58 -47 -37 -92 -122 -92 -173 0 -47 49 -137 94 -173 55 -45 110 -56 271 -56 151 0 157 -3 135 -62 -7 -18 -16 -49 -20 -68 -4 -19 -13 -48 -18 -65 -10 -28 -19 -60 -59 -205 -9 -30 -23 -77 -32 -105 l-16 -50 -481 -3 c-393 -2 -483 0 -493 11 -8 10 -7 24 3 53 8 21 22 68 31 104 9 36 23 90 32 120 8 30 21 79 29 108 8 28 20 76 28 105 8 28 21 78 30 110 9 31 23 83 32 115 9 31 22 80 29 107 21 77 42 154 61 220 9 33 22 80 29 105 7 25 20 68 29 96 9 29 16 58 16 65 0 7 7 33 16 56 l17 43 493 0 c300 0 495 -4 499 -9z m-4550 -296 c77 -41 159 -83 183 -95 l42 -22 0 -207 c0 -232 4 -218 -75 -261 -22 -12 -58 -31 -80 -44 -22 -12 -71 -39 -110 -61 -38 -21 -74 -42 -80 -46 -5 -5 -19 -9 -32 -9 l-23 0 0 410 c0 384 1 410 18 409 9 0 80 -33 157 -74z m1523 -752 c108 -53 205 -103 215 -111 16 -14 17 -49 17 -459 l0 -443 -26 0 c-14 0 -38 6 -52 14 -15 8 -88 45 -162 81 -177 88 -183 91 -197 111 -10 14 -13 118 -13 454 0 391 2 450 17 450 3 0 93 -44 201 -97z m-664 11 c10 -26 7 -588 -4 -604 -8 -13 -15 -12 -52 7 -24 11 -149 73 -279 136 -129 64 -241 122 -247 130 -11 13 8 27 120 94 73 44 160 95 193 113 33 18 85 46 115 63 30 17 71 40 90 53 42 27 56 29 64 8z"/> <path d="M4260 7749 c-143 -21 -180 -31 -295 -86 -117 -55 -209 -135 -297 -258 -39 -55 -108 -196 -108 -221 0 -9 -7 -40 -16 -70 -20 -70 -15 -313 9 -392 70 -232 245 -426 469 -520 396 -165 872 12 1045 388 60 131 83 230 83 364 0 126 -26 236 -84 356 -101 212 -353 396 -586 429 -122 17 -162 19 -220 10z m156 -455 c100 -32 196 -102 232 -169 54 -101 64 -186 33 -277 -25 -72 -38 -94 -86 -146 -95 -103 -245 -138 -379 -90 -75 27 -181 127 -214 202 -30 67 -31 204 -2 267 49 108 133 181 240 212 72 20 115 21 176 1z"/> </g> </svg> 