 <svg  version="1.0" xmlns="http://www.w3.org/2000/svg"  width="1500.000000pt" height="1500.000000pt" viewBox="0 0 1500.000000 1500.000000"  preserveAspectRatio="xMidYMid meet">  <g transform="translate(0.000000,1500.000000) scale(0.100000,-0.100000)" fill="#ffffff" stroke="none"> <path d="M4194 12881 c-95 -16 -195 -94 -251 -196 -23 -42 -28 -65 -31 -143 -4 -81 -1 -102 19 -153 31 -78 101 -156 173 -194 53 -28 65 -30 164 -30 97 0 112 3 157 27 77 41 133 94 168 162 29 57 32 68 32 161 0 88 -3 107 -27 157 -71 152 -237 238 -404 209z"/> <path d="M9198 12880 c-98 -17 -187 -77 -244 -165 -46 -72 -53 -98 -54 -194 0 -85 3 -99 31 -156 36 -74 83 -121 164 -166 57 -31 66 -33 165 -33 101 -1 107 0 168 33 75 41 135 105 168 180 33 73 34 196 3 267 -74 170 -231 262 -401 234z"/> <path d="M8463 12672 c-242 -124 -404 -243 -589 -429 -72 -73 -227 -275 -277 -360 -54 -93 -97 -176 -113 -218 -60 -157 -102 -301 -119 -403 -12 -72 -12 -72 229 -72 234 0 256 5 256 59 0 29 57 196 84 246 9 17 16 33 16 38 0 12 110 187 166 263 58 79 139 164 199 209 22 17 42 32 45 35 15 17 130 99 157 113 62 32 63 39 63 284 0 217 -7 274 -32 272 -7 0 -45 -17 -85 -37z"/> <path d="M4949 12673 c-7 -18 -10 -104 -7 -242 l4 -213 40 -37 c22 -20 88 -70 145 -111 188 -135 332 -303 435 -505 61 -118 124 -282 124 -319 0 -13 8 -30 19 -40 16 -14 44 -16 237 -14 l219 3 -3 57 c-3 87 -56 275 -97 350 -8 14 -15 31 -15 37 0 10 -38 88 -116 241 -141 277 -564 657 -882 793 -79 34 -90 34 -103 0z"/> <path d="M5049 10710 c-47 -6 -68 -16 -120 -56 -276 -209 -419 -369 -576 -643 -24 -41 -43 -77 -43 -79 0 -3 -11 -28 -24 -56 -28 -61 -66 -170 -103 -297 l-27 -94 -4 -1117 c-2 -676 1 -1163 7 -1235 5 -70 20 -157 36 -213 25 -88 84 -257 103 -297 5 -10 24 -49 42 -88 129 -270 378 -569 635 -765 80 -60 296 -200 310 -200 3 0 33 -13 68 -29 80 -37 228 -91 250 -91 10 0 30 -6 45 -13 80 -40 121 -42 1082 -41 1079 1 1083 1 1301 85 41 16 78 29 82 29 15 0 204 94 248 124 26 17 66 42 90 56 23 14 47 30 53 35 6 6 33 26 60 44 151 104 406 377 490 526 9 17 35 59 57 95 87 143 177 362 215 525 8 33 24 103 37 155 l22 95 -2 1125 c-1 1088 -2 1128 -21 1205 -36 145 -61 229 -86 296 -35 94 -133 294 -151 309 -8 7 -15 16 -15 20 0 4 -17 32 -37 62 -128 185 -342 396 -515 505 l-50 32 -1702 -1 c-935 -1 -1726 -4 -1757 -8z m3292 -1391 c277 -69 485 -233 636 -499 79 -138 103 -245 103 -455 0 -213 -22 -312 -102 -468 -64 -125 -205 -291 -302 -356 -148 -100 -231 -134 -429 -180 -162 -37 -443 16 -622 119 -168 96 -314 253 -400 431 -20 41 -41 82 -46 93 -19 34 -38 122 -49 228 -32 316 60 593 266 804 121 124 270 216 424 264 41 12 93 28 115 36 23 7 92 13 161 13 104 1 139 -3 245 -30z m-2674 -23 c330 -73 654 -398 720 -724 35 -175 25 -420 -24 -562 -34 -101 -136 -281 -174 -310 -4 -3 -23 -25 -44 -50 -44 -53 -165 -160 -181 -160 -6 0 -16 -6 -22 -13 -16 -18 -128 -72 -212 -102 -42 -14 -127 -32 -192 -40 -101 -12 -132 -12 -231 0 -63 8 -125 18 -138 23 -13 6 -44 18 -69 27 -242 95 -418 249 -537 468 -24 44 -43 88 -43 98 0 10 -4 21 -10 24 -42 26 -72 320 -51 504 29 258 183 500 426 670 91 64 244 130 345 150 30 6 64 13 75 15 41 10 293 -3 362 -18z"/> <path d="M8060 8834 c-141 -59 -196 -121 -242 -274 -24 -80 8 -216 69 -297 34 -45 119 -106 178 -129 77 -29 203 -25 275 9 114 55 175 127 209 248 26 94 26 117 0 195 -37 108 -151 226 -247 254 -20 6 -68 13 -107 16 -60 4 -79 1 -135 -22z"/> <path d="M5408 8815 c-99 -27 -200 -112 -238 -200 -34 -82 -43 -154 -26 -226 20 -82 33 -108 89 -174 29 -33 70 -64 115 -88 66 -35 75 -37 164 -37 86 0 101 3 157 31 69 35 151 111 180 167 28 55 45 152 37 216 -12 94 -77 196 -168 262 -77 57 -207 78 -310 49z"/> <path d="M3488 9173 c-90 -86 -191 -185 -225 -219 l-63 -63 0 -580 c0 -318 3 -586 6 -594 3 -8 83 -88 178 -178 247 -235 273 -259 284 -259 5 0 12 10 16 23 7 29 -2 2006 -10 2018 -3 5 -9 9 -14 9 -5 0 -82 -71 -172 -157z"/> <path d="M9855 9308 c-3 -7 -4 -465 -3 -1018 3 -884 5 -1005 18 -1007 8 -1 113 93 233 210 l217 212 -2 602 -3 602 -70 68 c-39 37 -104 99 -145 137 -41 38 -107 100 -146 138 -72 68 -91 79 -99 56z"/> <path d="M9712 6537 c-20 -9 -62 -86 -62 -113 0 -19 -111 -232 -160 -306 -24 -36 -34 -60 -28 -64 6 -4 99 -6 207 -5 127 1 207 -2 226 -9 17 -7 164 -147 346 -332 l316 -321 32 19 c49 28 301 301 301 325 0 13 -99 121 -278 302 -152 155 -325 332 -384 392 l-107 110 -195 5 c-108 3 -204 1 -214 -3z"/> <path d="M3186 6303 c-132 -131 -243 -241 -246 -245 -3 -4 -74 -77 -158 -162 -84 -85 -152 -159 -152 -164 0 -25 305 -342 329 -342 10 0 64 48 122 108 57 59 196 202 308 317 112 116 213 215 225 222 15 9 84 12 228 13 123 0 209 4 213 10 3 5 -11 36 -31 67 -48 75 -124 230 -154 313 -38 106 -24 100 -249 100 l-195 0 -240 -237z"/> <path d="M3907 5373 c-344 -335 -527 -525 -527 -546 0 -14 38 -61 108 -133 59 -60 129 -133 155 -162 27 -29 56 -52 68 -52 13 0 111 92 277 260 l257 260 320 0 c281 0 324 2 345 16 40 27 120 107 120 121 0 7 -12 20 -27 30 -119 73 -322 214 -386 268 l-78 65 -250 0 -251 0 -131 -127z"/> <path d="M8893 5422 c-104 -82 -192 -147 -208 -153 -37 -15 -185 -123 -185 -135 0 -19 95 -112 128 -125 13 -5 163 -9 335 -9 l311 0 261 -260 c143 -143 268 -260 276 -260 9 0 77 63 152 140 143 148 177 186 177 203 0 10 -309 326 -546 558 l-121 119 -241 0 -241 0 -98 -78z"/> <path d="M5307 4834 c-83 -82 -155 -152 -158 -157 -3 -4 -152 -155 -332 -336 -180 -180 -327 -334 -327 -340 0 -12 299 -309 328 -325 13 -8 103 79 474 455 l458 464 0 146 c0 106 -3 149 -12 156 -25 19 -178 72 -228 79 l-50 7 -153 -149z"/> <path d="M7985 4970 c-22 -5 -73 -21 -113 -36 -57 -21 -76 -33 -84 -53 -5 -14 -8 -88 -6 -163 l3 -137 386 -388 c213 -213 409 -412 435 -442 27 -29 61 -62 75 -72 l26 -18 148 147 c188 187 185 182 150 224 -27 34 -761 773 -878 886 -67 63 -72 65 -142 52z"/> <path d="M6142 4678 c-9 -9 -12 -76 -12 -240 0 -220 1 -228 21 -238 25 -14 1193 -11 1222 2 15 8 17 29 17 238 0 216 -1 230 -19 240 -30 15 -1213 14 -1229 -2z"/> </g> </svg> 