 <svg  version="1.0" xmlns="http://www.w3.org/2000/svg"  width="1350.000000pt" height="1350.000000pt" viewBox="0 0 1350.000000 1350.000000"  preserveAspectRatio="xMidYMid meet">  <g transform="translate(0.000000,1350.000000) scale(0.100000,-0.100000)" fill="#ffffff" stroke="none"> <path d="M3133 12170 c-28 -16 -64 -46 -79 -66 -30 -39 -64 -124 -64 -161 0 -37 37 -132 65 -169 50 -65 95 -84 375 -159 36 -9 85 -23 110 -30 25 -8 72 -21 105 -31 33 -9 78 -23 100 -29 72 -22 139 -42 200 -60 33 -10 76 -23 95 -30 19 -7 82 -27 140 -45 58 -18 119 -37 135 -42 17 -6 44 -14 60 -18 17 -5 75 -25 130 -45 55 -20 114 -40 130 -45 17 -4 55 -18 85 -30 74 -28 130 -49 160 -60 14 -5 50 -18 80 -30 30 -12 67 -25 81 -30 14 -4 34 -12 45 -18 10 -5 39 -18 64 -27 25 -9 59 -23 75 -30 17 -7 55 -23 85 -35 149 -60 336 -154 433 -217 70 -46 191 -159 252 -236 l30 -37 262 -1 c145 0 268 3 274 6 12 8 4 52 -19 105 -109 250 -193 367 -379 526 -75 65 -234 168 -333 216 -77 38 -210 97 -295 133 -49 20 -103 43 -120 50 -65 28 -183 74 -235 91 -30 10 -60 21 -65 25 -11 8 -59 26 -170 63 -38 13 -81 28 -95 34 -67 26 -113 43 -210 72 -58 18 -121 38 -140 45 -36 13 -93 30 -195 60 -33 10 -75 24 -93 31 -18 8 -41 14 -52 14 -11 0 -34 6 -52 14 -18 8 -62 22 -98 31 -36 9 -83 23 -105 29 -22 7 -67 21 -100 30 -33 10 -80 23 -105 31 -25 7 -74 20 -110 30 -75 20 -148 42 -205 61 -23 8 -77 14 -120 14 -70 0 -86 -4 -132 -30z"/> <path d="M10098 12189 c-9 -5 -36 -13 -60 -18 -24 -5 -58 -14 -75 -20 -18 -6 -48 -16 -65 -22 -18 -6 -49 -15 -68 -19 -19 -5 -60 -16 -90 -26 -107 -32 -237 -69 -300 -85 -25 -6 -61 -17 -80 -24 -19 -7 -62 -20 -95 -30 -110 -33 -149 -45 -315 -101 -91 -30 -178 -59 -195 -64 -55 -15 -222 -76 -293 -106 -18 -8 -39 -14 -47 -14 -7 0 -26 -6 -42 -14 -26 -13 -56 -25 -158 -63 -22 -8 -53 -21 -70 -28 -16 -7 -50 -20 -75 -30 -25 -10 -60 -24 -77 -32 -32 -13 -68 -29 -135 -58 -43 -18 -237 -113 -263 -128 -11 -7 -39 -24 -63 -39 -24 -16 -45 -28 -48 -28 -15 0 -208 -157 -260 -212 -78 -80 -190 -230 -214 -286 -5 -13 -21 -46 -34 -75 -55 -121 -69 -177 -43 -177 6 -1 129 -1 272 0 257 0 260 1 278 23 94 115 208 219 312 284 28 18 282 143 289 143 3 0 34 13 68 29 35 15 99 43 143 60 44 18 93 39 108 47 16 8 35 14 42 14 7 0 26 6 42 14 15 8 44 19 63 26 19 6 71 25 115 42 44 16 94 33 110 38 17 5 55 18 85 30 73 28 218 79 255 90 17 4 44 13 60 19 92 33 184 64 215 70 19 5 46 13 60 18 14 6 52 18 85 28 72 21 145 43 200 60 22 7 69 20 105 30 96 26 234 65 319 91 25 8 53 14 62 14 18 0 56 15 128 49 70 34 141 147 141 225 0 57 -34 137 -76 181 -66 68 -108 85 -211 85 -48 0 -96 -5 -105 -11z"/> <path d="M2775 11335 c-27 -7 -63 -18 -80 -26 -36 -16 -132 -87 -161 -120 -62 -69 -114 -213 -114 -314 0 -58 26 -160 52 -207 45 -80 124 -161 185 -192 21 -10 52 -26 68 -34 23 -12 60 -16 150 -17 123 0 137 3 244 54 61 29 155 130 192 206 30 64 34 80 37 178 3 85 0 119 -14 160 -37 107 -132 221 -227 273 -94 51 -224 66 -332 39z"/> <path d="M10485 11338 c-70 -18 -147 -59 -198 -107 -204 -189 -211 -488 -16 -681 30 -30 71 -62 90 -71 105 -50 122 -54 234 -54 112 0 134 5 233 54 86 42 170 143 212 254 37 98 20 311 -29 360 -6 6 -11 16 -11 23 0 24 -129 151 -182 178 -97 51 -231 69 -333 44z"/> <path d="M4930 10075 c-97 -13 -181 -33 -235 -55 -109 -46 -231 -112 -295 -161 -286 -217 -455 -529 -490 -903 -8 -88 -8 -122 1 -132 10 -12 117 -14 644 -14 610 0 634 -1 677 -20 76 -33 137 -114 153 -203 7 -38 -21 -130 -55 -177 -30 -42 -85 -75 -148 -89 -38 -8 -379 -11 -1180 -11 -864 0 -1131 -3 -1140 -12 -9 -9 -12 -274 -12 -1130 0 -1062 -1 -1118 -18 -1118 -9 0 -98 81 -196 181 -98 99 -181 178 -184 174 -3 -3 -5 -139 -5 -303 0 -338 8 -413 80 -737 17 -76 67 -249 88 -305 38 -100 97 -240 115 -270 5 -8 19 -35 31 -60 98 -196 310 -454 496 -603 74 -59 198 -147 209 -147 2 0 25 -13 51 -29 27 -16 82 -47 123 -69 56 -29 75 -44 75 -59 0 -20 -71 -98 -349 -383 -122 -125 -254 -263 -419 -438 -140 -149 -171 -216 -147 -320 7 -31 19 -68 26 -82 7 -14 45 -92 85 -175 66 -139 114 -237 304 -630 40 -82 87 -181 105 -220 89 -192 116 -232 189 -278 51 -31 143 -29 196 5 69 44 115 121 115 193 0 51 -8 71 -115 300 -107 228 -290 600 -376 764 -51 99 -55 120 -27 157 12 16 119 130 238 254 118 124 220 230 225 236 6 6 104 109 220 228 244 254 191 232 424 172 73 -19 78 -6 -114 -257 -60 -79 -129 -169 -152 -199 -102 -130 -369 -488 -384 -515 -9 -17 -22 -55 -29 -86 -22 -100 11 -191 145 -399 23 -36 86 -137 139 -225 54 -88 140 -227 192 -310 51 -82 97 -157 101 -165 20 -42 69 -104 109 -136 42 -35 49 -37 117 -38 64 0 77 3 117 30 59 39 110 123 110 180 0 54 -42 135 -229 444 -78 129 -148 244 -154 255 -7 11 -35 56 -63 100 -29 44 -68 110 -87 146 l-36 67 32 45 c18 25 50 65 72 88 22 24 58 66 80 95 47 60 155 194 170 210 5 6 35 42 65 79 74 91 262 317 365 440 56 67 104 112 141 135 288 177 629 521 809 818 6 9 22 35 37 58 38 59 111 195 106 199 -2 2 -53 5 -115 6 l-111 2 -74 -67 c-168 -154 -407 -286 -613 -340 -188 -48 -205 -50 -415 -50 -160 1 -219 5 -270 18 -36 10 -92 24 -125 33 -135 35 -222 70 -350 140 -141 78 -322 223 -399 319 -22 27 -48 57 -58 67 -29 29 -142 205 -181 282 -89 178 -142 360 -167 571 -13 115 -13 165 0 289 22 203 60 348 131 502 16 35 29 65 29 68 0 10 123 210 157 255 105 138 314 332 403 373 8 4 29 16 45 27 38 24 133 71 205 100 30 12 70 28 88 36 18 8 40 14 50 14 9 0 34 6 57 14 99 35 226 48 421 44 106 -3 211 -10 239 -17 28 -7 77 -20 110 -28 60 -15 114 -33 170 -58 45 -19 177 -85 200 -98 144 -86 238 -160 364 -287 l96 -97 203 3 c111 2 207 6 212 9 7 4 10 435 10 1243 1 1401 -5 1306 79 1369 l43 33 244 0 245 0 55 -54 54 -55 0 -113 c1 -62 2 -629 3 -1259 2 -983 4 -1148 16 -1163 14 -16 32 -17 220 -10 l206 7 105 106 c92 94 236 214 280 234 8 4 29 16 45 27 38 24 133 71 205 100 30 12 70 28 88 36 18 8 40 14 48 14 9 0 37 7 63 15 201 63 541 63 761 -2 85 -24 169 -52 188 -62 9 -5 49 -24 87 -42 287 -135 510 -342 692 -644 7 -11 22 -40 33 -65 12 -25 26 -54 32 -64 6 -11 14 -31 18 -45 5 -14 18 -50 29 -80 24 -65 54 -185 73 -296 17 -103 17 -368 0 -465 -21 -120 -43 -212 -58 -248 -8 -18 -14 -39 -14 -46 0 -23 -83 -202 -120 -261 -11 -16 -23 -37 -27 -45 -18 -39 -164 -221 -237 -295 -69 -70 -233 -205 -250 -205 -3 0 -25 -13 -49 -30 -25 -16 -48 -30 -53 -30 -4 0 -15 -6 -23 -13 -15 -12 -123 -60 -211 -92 -42 -15 -125 -37 -235 -61 -113 -25 -451 -25 -545 0 -36 9 -92 24 -125 33 -33 8 -75 21 -93 29 -18 8 -37 14 -43 14 -19 0 -204 93 -274 138 -74 48 -183 127 -200 146 -5 6 -29 28 -53 49 l-44 38 -91 -1 c-105 -2 -127 -6 -127 -23 0 -12 36 -83 71 -141 10 -17 22 -38 26 -46 4 -8 27 -44 52 -80 24 -36 58 -85 75 -110 77 -115 303 -358 436 -470 36 -30 67 -58 70 -61 20 -22 194 -144 225 -158 25 -11 68 -52 120 -115 22 -27 45 -54 50 -60 10 -10 83 -100 160 -196 45 -56 109 -134 115 -140 3 -3 23 -27 45 -55 22 -27 67 -82 100 -121 33 -39 102 -122 154 -185 51 -63 101 -123 110 -134 9 -11 27 -35 40 -54 24 -34 24 -34 5 -70 -10 -20 -30 -54 -44 -76 -36 -58 -379 -627 -418 -695 -47 -81 -60 -108 -72 -155 -10 -43 -10 -58 4 -105 19 -64 26 -74 85 -120 40 -31 50 -34 110 -34 112 -1 169 46 273 221 18 30 41 67 50 82 10 14 22 35 28 46 6 11 19 34 30 50 11 17 24 39 30 50 6 11 19 34 30 50 10 17 25 40 32 52 7 13 79 132 159 265 172 285 161 265 184 349 16 63 16 70 0 124 -10 37 -37 86 -69 129 -29 39 -61 83 -72 97 -66 91 -329 435 -334 439 -25 18 -261 343 -257 354 6 14 72 36 109 36 14 0 45 7 68 15 75 26 77 25 221 -127 177 -187 385 -403 595 -618 94 -97 176 -185 182 -197 10 -17 -11 -65 -148 -339 -87 -176 -200 -404 -250 -509 -50 -104 -95 -198 -101 -209 -17 -30 -39 -109 -39 -142 0 -99 87 -206 179 -219 27 -4 65 -2 86 4 38 10 98 51 127 86 18 21 75 133 156 305 78 164 148 312 229 480 111 230 183 385 219 470 28 65 25 181 -6 238 -23 45 -107 137 -370 407 -443 455 -525 542 -525 559 0 9 81 57 155 93 56 26 175 104 272 176 191 145 391 367 494 552 55 100 109 208 139 281 20 49 43 104 51 122 8 18 14 39 14 47 0 8 6 29 14 47 34 81 87 303 120 503 40 239 44 746 6 753 -8 1 -25 -13 -38 -32 -29 -42 -209 -229 -276 -286 -33 -28 -52 -38 -59 -31 -6 6 -11 393 -14 1128 -2 615 -7 1121 -11 1125 -4 4 -529 9 -1167 10 -884 3 -1168 6 -1196 16 -84 29 -159 139 -159 235 0 87 57 179 137 218 l48 24 650 5 650 5 -1 67 c-1 67 -15 175 -36 258 -6 25 -14 61 -18 80 -20 84 -92 241 -165 355 -45 70 -240 269 -305 311 -185 118 -309 163 -525 189 -166 20 -3455 20 -3605 0z"/> <path d="M4555 6844 c-237 -49 -396 -133 -560 -298 -168 -169 -253 -333 -299 -576 -92 -487 213 -1015 684 -1185 145 -52 269 -69 435 -60 106 6 150 15 280 57 226 73 444 250 571 463 23 38 84 166 84 175 0 5 6 24 14 42 50 118 66 396 31 541 -64 268 -208 491 -415 646 -85 63 -108 79 -130 87 -8 3 -22 10 -30 15 -8 5 -22 12 -30 15 -8 3 -28 12 -45 19 -156 67 -421 93 -590 59z m350 -543 c103 -33 172 -78 247 -160 116 -129 163 -307 124 -471 -12 -50 -21 -72 -48 -120 -4 -8 -12 -24 -17 -36 -18 -40 -124 -145 -180 -177 -100 -58 -148 -69 -287 -69 -128 0 -143 3 -244 50 -111 52 -197 152 -264 305 -21 50 -31 186 -18 264 26 153 152 319 292 384 112 53 282 65 395 30z"/> <path d="M8550 6841 c-114 -24 -172 -43 -253 -79 -266 -121 -498 -394 -580 -682 -22 -75 -47 -235 -47 -295 0 -59 26 -220 47 -295 43 -150 139 -316 255 -441 34 -37 153 -139 162 -139 3 0 22 -12 43 -26 65 -44 182 -95 298 -130 124 -37 387 -41 505 -7 231 66 353 132 504 273 56 52 151 174 189 241 35 65 91 201 113 279 27 94 27 406 0 500 -53 188 -120 315 -235 450 -162 188 -332 291 -576 346 -109 25 -322 27 -425 5z m350 -541 c87 -28 165 -75 223 -134 84 -86 118 -147 148 -266 23 -92 24 -136 3 -214 -62 -232 -249 -400 -469 -420 -279 -24 -477 100 -580 364 -26 65 -26 261 -1 321 46 112 64 138 140 214 118 117 206 153 372 154 75 1 118 -4 164 -19z"/> <path d="M6144 3797 c-12 -6 -60 -46 -106 -87 -47 -41 -141 -120 -209 -175 -146 -117 -162 -132 -154 -145 8 -13 2141 -14 2149 -1 6 10 -44 58 -134 126 -129 99 -226 178 -284 234 l-59 56 -591 2 c-458 2 -596 0 -612 -10z"/> <path d="M6723 3000 c-1748 -5 -1762 -5 -1780 -25 -10 -11 -50 -58 -90 -105 -39 -47 -80 -94 -90 -105 -10 -11 -39 -45 -65 -75 -25 -30 -63 -73 -82 -95 -43 -48 -44 -61 -9 -100 125 -136 427 -456 590 -623 73 -75 117 -113 127 -109 8 3 55 87 105 187 50 99 95 188 100 198 6 9 33 64 62 122 123 246 142 282 160 288 24 9 1936 16 1971 7 25 -6 49 -50 224 -401 108 -217 203 -399 211 -406 12 -10 25 -2 71 47 31 33 101 107 157 166 219 230 394 417 445 474 30 33 57 62 62 63 4 2 8 15 8 28 0 17 -30 59 -92 130 -51 58 -121 140 -156 182 -96 117 -116 138 -139 150 -12 7 -23 11 -25 10 -2 -2 -796 -5 -1765 -8z"/> <path d="M5924 2199 c-4 -7 -34 -64 -67 -128 -32 -64 -107 -208 -165 -321 -162 -315 -171 -334 -164 -342 10 -10 2423 -11 2433 -1 4 4 -3 27 -15 50 -11 23 -80 158 -152 300 -126 248 -162 318 -208 411 l-21 42 -817 0 c-601 0 -819 -3 -824 -11z"/> </g> </svg> 