 <svg  version="1.0" xmlns="http://www.w3.org/2000/svg"  width="1350.000000pt" height="1350.000000pt" viewBox="0 0 1350.000000 1350.000000"  preserveAspectRatio="xMidYMid meet">  <g transform="translate(0.000000,1350.000000) scale(0.100000,-0.100000)" fill="#ffffff" stroke="none"> <path d="M3647 11063 c-10 -36 -2 -2172 8 -2181 34 -29 321 -288 325 -293 3 -3 57 -52 120 -109 175 -158 270 -252 264 -261 -3 -5 -104 -9 -225 -9 l-219 0 0 -113 c0 -98 -2 -115 -19 -129 -30 -26 -302 -279 -353 -329 l-48 -46 0 -570 0 -569 38 -35 c20 -19 77 -68 125 -108 48 -40 95 -80 105 -90 9 -9 47 -43 84 -75 l67 -58 3 -96 3 -97 260 -3 c192 -2 261 -6 267 -15 4 -6 8 -52 8 -102 0 -49 7 -162 15 -250 8 -88 15 -209 15 -270 0 -138 17 -392 27 -410 5 -7 28 -30 53 -49 108 -87 285 -226 569 -446 35 -28 71 -60 79 -71 13 -18 14 -76 8 -408 -7 -361 -6 -388 11 -414 17 -26 105 -96 458 -364 77 -59 154 -118 171 -132 32 -27 71 -58 159 -126 29 -22 119 -92 200 -155 81 -63 171 -133 199 -155 29 -22 107 -82 174 -132 67 -51 131 -93 142 -93 17 0 341 234 360 260 3 3 77 61 165 128 88 67 210 160 270 207 61 48 142 111 180 140 154 118 224 172 315 244 52 42 126 98 163 125 44 33 67 57 67 70 1 12 2 194 3 406 1 212 6 392 10 400 5 8 72 65 149 125 77 61 169 133 203 160 35 28 110 86 167 130 217 168 198 140 198 292 0 70 5 190 11 267 5 76 13 244 17 372 6 167 11 237 20 246 10 10 81 14 265 18 l252 5 5 98 c5 90 7 101 30 119 35 28 130 110 148 128 8 8 28 24 43 36 15 11 66 55 113 98 l86 78 0 572 0 571 -23 25 c-13 14 -91 88 -173 165 -82 77 -166 157 -186 178 l-38 38 0 104 0 105 -207 0 c-115 0 -214 4 -222 9 -13 9 1 24 194 201 44 40 103 94 130 120 28 25 109 99 180 165 72 65 149 137 173 161 l42 42 0 1086 c0 597 -3 1086 -7 1086 -16 0 -39 -22 -234 -215 l-199 -198 0 -772 0 -771 -54 -55 c-121 -123 -198 -190 -210 -186 -10 4 -12 39 -9 159 4 193 22 542 29 588 6 35 2 39 -211 250 -259 257 -223 222 -336 317 -83 69 -216 168 -267 198 -9 6 -44 28 -77 49 -99 64 -315 169 -470 228 -170 64 -476 148 -542 148 -15 0 -60 7 -98 15 -39 8 -109 15 -157 15 l-88 0 0 -224 c0 -124 4 -227 8 -230 5 -3 63 -10 128 -16 151 -14 331 -48 429 -81 17 -6 44 -14 60 -19 17 -4 41 -12 55 -18 14 -5 45 -18 70 -27 56 -22 236 -110 271 -133 15 -9 47 -30 72 -45 25 -15 48 -35 51 -44 5 -12 -100 -123 -386 -410 -216 -216 -394 -398 -396 -403 -2 -6 -10 -10 -17 -10 -11 0 -15 22 -17 93 l-3 92 -160 0 -160 0 -3 -257 -2 -257 -81 -86 c-45 -47 -86 -85 -93 -85 -14 0 -160 147 -175 177 -7 14 -11 107 -11 268 l0 246 -157 -3 -158 -3 -3 -83 c-2 -58 -7 -84 -16 -88 -15 -6 -798 775 -804 800 -3 14 75 76 138 110 19 10 54 29 78 42 65 36 233 106 297 124 17 5 44 13 60 19 111 38 293 71 435 79 l125 7 5 225 c3 143 1 229 -5 237 -12 14 -223 1 -269 -17 -15 -5 -43 -10 -63 -10 -19 0 -65 -7 -101 -16 -63 -15 -94 -23 -232 -61 -30 -9 -70 -22 -88 -29 -18 -8 -39 -14 -47 -14 -8 0 -31 -7 -52 -16 -21 -9 -51 -22 -68 -28 -116 -48 -296 -138 -387 -194 -126 -79 -167 -107 -268 -183 -136 -102 -298 -249 -509 -460 l-153 -154 6 -75 c4 -41 11 -190 16 -330 6 -140 13 -285 16 -322 5 -45 3 -68 -4 -68 -12 0 -130 106 -214 192 -35 36 -58 68 -58 81 0 12 -1 362 -2 778 l-3 755 -204 202 c-113 111 -208 202 -212 202 -4 0 -10 -8 -12 -17z m1949 -1885 c929 -919 1064 -1054 1064 -1064 0 -5 -14 -29 -30 -53 -40 -59 -47 -102 -24 -153 38 -85 140 -115 217 -63 46 32 67 71 67 129 0 45 -32 116 -52 116 -44 0 50 99 719 760 703 695 884 870 899 870 9 0 26 -10 38 -23 11 -12 69 -73 128 -134 l107 -111 -5 -203 c-3 -112 -12 -231 -19 -264 -8 -36 -16 -162 -20 -310 -3 -137 -10 -293 -15 -345 -5 -52 -10 -160 -10 -240 0 -80 -4 -150 -8 -157 -5 -8 -25 1 -67 29 -92 62 -142 87 -214 109 -36 12 -77 25 -91 31 -31 13 -119 26 -223 34 -171 14 -398 -51 -566 -161 -69 -46 -176 -150 -241 -235 -50 -67 -120 -194 -120 -220 0 -5 -6 -24 -14 -42 -62 -144 -62 -435 0 -600 32 -87 49 -124 61 -139 7 -8 13 -19 13 -23 0 -5 13 -27 28 -50 15 -22 31 -50 35 -60 4 -11 7 -348 7 -750 0 -567 -3 -732 -13 -738 -6 -4 -237 -7 -512 -5 l-500 2 -3 746 -2 746 44 66 c46 71 92 173 122 272 25 85 26 420 1 479 -9 21 -17 45 -17 53 0 28 -93 208 -138 268 -74 98 -217 228 -282 258 -8 4 -30 16 -49 28 -48 29 -180 75 -284 98 -58 14 -202 14 -259 2 -24 -6 -65 -14 -93 -20 -77 -15 -173 -44 -205 -62 -8 -5 -25 -13 -38 -19 -31 -13 -122 -73 -151 -99 -44 -39 -48 -20 -60 279 -18 472 -31 712 -42 800 -6 47 -13 167 -16 267 l-6 183 130 130 c72 71 137 130 145 130 8 0 262 -244 564 -542z m-1227 -1958 c1 -239 5 -507 10 -595 17 -293 17 -300 0 -299 -9 1 -94 66 -189 145 -244 203 -240 199 -250 244 -7 30 -15 472 -12 640 1 20 144 164 339 340 l88 80 6 -60 c4 -33 7 -256 8 -495z m4808 517 c21 -19 54 -47 73 -63 19 -15 98 -90 174 -166 l139 -137 -7 -343 -7 -342 -37 -34 c-20 -18 -77 -68 -127 -110 -49 -41 -92 -79 -95 -82 -5 -6 -142 -117 -166 -135 -7 -5 -15 -7 -17 -5 -2 3 -1 259 4 570 4 311 8 636 8 723 1 97 5 157 11 157 5 0 27 -15 47 -33z m-3617 -61 c86 -16 136 -36 198 -78 163 -112 242 -301 208 -493 -25 -139 -83 -234 -194 -317 -72 -54 -110 -72 -194 -92 -86 -21 -120 -20 -215 3 -105 25 -167 60 -238 134 -71 75 -109 141 -136 237 -24 87 -24 145 0 235 52 194 206 338 396 371 94 16 90 16 175 0z m2540 0 c103 -17 153 -39 232 -99 36 -28 118 -128 118 -145 0 -4 5 -13 11 -19 51 -51 68 -277 29 -386 -45 -128 -128 -222 -260 -295 -34 -19 -167 -52 -212 -52 -43 0 -177 31 -230 54 -54 23 -165 131 -202 196 -48 85 -66 153 -66 255 0 127 25 199 107 307 78 103 175 162 302 183 42 7 78 13 81 14 3 0 43 -5 90 -13z m-3187 -1252 c4 -8 13 -14 19 -14 5 0 27 -12 47 -28 36 -27 134 -77 201 -102 131 -48 357 -64 486 -34 37 8 78 14 93 12 l26 -3 1 -140 c0 -77 3 -347 7 -600 7 -513 -2 -1086 -18 -1092 -5 -1 -23 9 -40 23 -16 14 -41 35 -55 47 -14 12 -48 40 -75 62 -45 36 -87 71 -119 100 -6 6 -34 28 -61 50 -28 21 -53 44 -57 50 -4 5 -8 129 -8 274 0 326 10 302 -158 392 -31 16 -72 29 -100 31 l-47 3 0 -207 c0 -113 -2 -208 -5 -211 -3 -3 -32 19 -65 48 l-60 54 -7 243 c-5 134 -13 317 -18 408 -6 91 -15 237 -20 325 -6 88 -15 195 -21 239 -13 95 -8 112 23 95 13 -7 27 -18 31 -25z m3717 -38 c0 -30 -7 -128 -15 -218 -24 -264 -36 -456 -44 -755 -9 -311 -3 -282 -82 -349 -23 -19 -46 -34 -51 -34 -7 0 -9 67 -6 210 6 233 8 227 -62 211 -84 -19 -200 -95 -229 -149 -7 -14 -11 -108 -11 -282 l0 -261 -33 -32 c-17 -18 -79 -70 -136 -117 -58 -47 -138 -114 -178 -149 -41 -35 -77 -60 -81 -57 -11 11 -8 1844 3 1855 7 6 34 4 80 -6 95 -21 315 -28 385 -13 143 32 248 75 360 149 41 28 81 50 88 50 8 1 12 -16 12 -53z m-1372 -2057 c2 -267 0 -328 -12 -338 -10 -8 -149 -10 -512 -9 l-499 3 -3 338 -2 337 512 -2 513 -3 3 -326z m-1493 -523 c51 -48 56 -56 46 -75 -13 -23 -14 -23 -78 22 -38 27 -43 35 -43 69 0 21 4 38 9 38 5 0 34 -24 66 -54z m2045 18 c0 -16 -16 -39 -47 -69 -27 -25 -51 -45 -54 -45 -3 0 -14 9 -24 20 -18 20 -18 21 6 46 35 39 100 85 110 78 5 -3 9 -16 9 -30z m-562 -390 c2 -56 -1 -86 -10 -96 -7 -7 -38 -40 -68 -73 -30 -33 -118 -127 -195 -210 -78 -82 -157 -167 -176 -189 -27 -29 -40 -37 -55 -32 -24 7 -287 273 -420 423 l-94 107 0 62 c0 104 -56 95 514 92 l501 -3 3 -81z"/> <path d="M4978 9317 c-107 -93 -46 -267 95 -267 145 0 210 181 97 270 -32 26 -46 30 -96 30 -52 0 -63 -4 -96 -33z"/> <path d="M8310 9324 c-59 -50 -74 -110 -45 -175 32 -73 70 -99 145 -99 61 1 82 13 124 75 43 62 28 146 -34 199 -27 22 -41 26 -95 26 -54 0 -68 -4 -95 -26z"/> <path d="M6006 8576 c-20 -6 -52 -26 -70 -44 -60 -59 -57 -166 8 -230 32 -33 39 -36 100 -36 57 -1 68 2 103 30 133 108 23 327 -141 280z"/> <path d="M7375 8570 c-69 -21 -113 -105 -96 -182 38 -165 265 -167 311 -2 11 38 10 51 -4 87 -25 67 -63 97 -127 102 -30 3 -68 0 -84 -5z"/> <path d="M6670 7560 c-125 -44 -189 -182 -144 -313 66 -195 346 -196 434 -2 55 120 -19 276 -151 318 -64 21 -71 21 -139 -3z"/> <path d="M6650 6591 c-33 -27 -35 -32 -35 -94 0 -51 4 -70 20 -87 24 -26 78 -50 114 -50 55 0 131 73 131 126 0 37 -27 88 -59 112 -47 34 -126 31 -171 -7z"/> <path d="M6690 6269 c-62 -26 -89 -81 -76 -154 8 -43 73 -95 118 -95 34 0 85 24 112 53 24 24 32 103 14 136 -29 54 -112 84 -168 60z"/> <path d="M6692 5936 c-66 -24 -93 -80 -78 -160 18 -94 151 -129 219 -58 38 40 49 77 37 121 -13 51 -39 78 -90 96 -48 17 -43 17 -88 1z"/> <path d="M6410 10053 c-41 -8 -96 -21 -121 -29 -26 -8 -56 -14 -68 -14 -11 0 -38 -6 -58 -14 -21 -7 -65 -21 -98 -30 -33 -10 -79 -26 -103 -37 l-43 -19 3 -113 3 -112 318 -3 317 -2 0 195 0 195 -37 -1 c-21 -1 -72 -8 -113 -16z"/> <path d="M6922 9878 l3 -193 320 0 320 0 3 109 c3 131 1 135 -101 166 -40 12 -90 28 -112 36 -23 8 -49 14 -59 14 -11 0 -42 6 -70 14 -79 22 -216 46 -264 46 l-42 0 2 -192z"/> </g> </svg> 