<?xml version="1.0" standalone="no"?>
<!DOCTYPE svg PUBLIC "-//W3C//DTD SVG 20010904//EN"
 "http://www.w3.org/TR/2001/REC-SVG-20010904/DTD/svg10.dtd">
<svg version="1.0" xmlns="http://www.w3.org/2000/svg"
 width="1350.000000pt" height="1350.000000pt" viewBox="0 0 1350.000000 1350.000000"
 preserveAspectRatio="xMidYMid meet">
<metadata>
Created by potrace 1.10, written by Peter Selinger 2001-2011
</metadata>
<g transform="translate(0.000000,1350.000000) scale(0.100000,-0.100000)"
fill="#000000" stroke="none">
<path d="M6775 10411 c-106 -32 -176 -72 -251 -146 -68 -67 -82 -86 -119 -165
-21 -43 -55 -181 -55 -220 0 -38 33 -174 55 -225 24 -57 110 -170 159 -209 22
-18 76 -50 118 -70 l77 -38 3 -852 3 -852 23 -29 c38 -49 62 -60 127 -60 48 0
67 5 90 23 68 53 64 -3 65 932 l1 845 67 32 c37 18 91 53 120 79 199 175 254
412 151 649 -34 77 -128 185 -208 237 -120 79 -296 107 -426 69z m255 -301
c42 -22 91 -73 116 -120 27 -52 25 -172 -4 -227 -58 -112 -210 -171 -324 -126
-204 79 -230 342 -45 460 71 45 183 51 257 13z"/>
<path d="M5105 9961 c-33 -10 -76 -28 -95 -40 -19 -11 -42 -24 -50 -27 -26
-11 -134 -129 -151 -165 -51 -106 -54 -120 -53 -249 0 -124 1 -126 39 -205 60
-127 178 -228 303 -258 l47 -12 5 -675 c5 -739 2 -702 65 -760 23 -22 35 -25
96 -24 64 0 71 2 103 33 21 20 38 50 45 77 7 29 11 262 11 712 l0 669 41 28
c65 45 145 139 177 207 154 330 -88 711 -450 707 -40 0 -100 -9 -133 -18z
m236 -313 c66 -44 84 -79 84 -160 0 -59 -3 -70 -31 -105 -85 -105 -223 -113
-302 -17 -61 74 -60 177 3 246 46 50 83 67 145 68 45 0 63 -5 101 -32z"/>
<path d="M8455 9963 c-79 -24 -133 -52 -198 -103 -26 -21 -99 -118 -119 -160
-75 -154 -62 -318 37 -499 21 -38 111 -126 150 -147 l35 -19 0 -680 c0 -640 2
-682 19 -720 10 -22 31 -51 45 -65 24 -21 37 -25 94 -25 55 0 73 4 98 24 61
45 58 16 59 749 0 655 1 674 19 688 11 8 27 14 37 14 72 0 246 137 294 233 93
182 67 400 -66 553 -102 118 -225 174 -374 173 -44 -1 -102 -8 -130 -16z m213
-300 c69 -43 112 -112 112 -179 0 -70 -61 -144 -147 -180 -112 -47 -264 86
-237 209 22 105 92 166 192 167 33 0 63 -6 80 -17z"/>
<path d="M3845 8815 c-168 -33 -288 -142 -356 -319 -25 -68 -27 -229 -2 -301
33 -96 97 -184 178 -243 67 -50 113 -69 209 -88 77 -15 86 -15 176 4 79 17 98
18 115 8 11 -8 104 -97 206 -199 201 -201 208 -205 306 -194 93 10 149 114
109 199 -10 20 -96 113 -191 207 -96 94 -182 182 -190 194 -13 21 -13 29 1 78
9 30 18 97 21 150 4 79 1 108 -16 165 -27 85 -61 146 -115 203 -74 78 -144
116 -251 137 -81 16 -118 16 -200 -1z m214 -325 c75 -52 94 -168 41 -244 -74
-109 -228 -110 -302 -1 -63 93 -19 230 87 267 40 14 142 2 174 -22z"/>
<path d="M9787 8815 c-38 -7 -73 -17 -80 -24 -6 -6 -17 -11 -24 -11 -29 0
-135 -86 -178 -145 -41 -56 -51 -75 -75 -142 -25 -72 -28 -247 -5 -313 8 -23
15 -53 15 -65 0 -16 -55 -77 -191 -211 -135 -135 -196 -202 -210 -233 -19 -43
-19 -47 -2 -93 9 -27 26 -57 38 -67 32 -29 96 -40 152 -28 44 10 65 28 241
202 107 104 199 193 205 197 12 7 52 2 104 -13 85 -26 250 -3 344 47 64 35
155 125 187 185 79 148 83 340 9 472 -71 128 -196 221 -331 246 -71 13 -108
12 -199 -4z m148 -296 c55 -16 92 -44 115 -89 25 -48 26 -126 3 -160 -69 -105
-151 -134 -243 -87 -95 48 -129 159 -75 250 31 54 76 81 155 96 3 0 23 -4 45
-10z"/>
<path d="M6009 8550 c-20 -11 -50 -33 -66 -49 -29 -28 -73 -126 -73 -160 0
-35 34 -117 67 -160 l33 -44 0 -241 c1 -206 3 -246 18 -275 28 -57 64 -76 138
-75 59 0 67 3 99 34 51 50 59 99 53 349 -4 176 -3 215 10 238 48 88 62 127 62
167 0 85 -58 174 -141 216 -51 27 -150 26 -200 0z"/>
<path d="M7615 8550 c-43 -20 -78 -55 -108 -109 -14 -24 -19 -53 -19 -107 1
-65 5 -82 31 -129 l31 -55 0 -253 0 -254 30 -41 c55 -76 169 -83 235 -15 l35
36 0 255 0 255 28 36 c52 68 62 97 62 174 0 51 -5 80 -17 97 -30 46 -78 92
-115 111 -49 25 -139 25 -193 -1z"/>
<path d="M4740 7173 c-107 -51 -317 -261 -407 -408 -7 -11 -35 -65 -62 -120
-85 -174 -96 -212 -130 -465 -17 -123 -10 -1688 8 -1785 35 -190 70 -300 149
-465 38 -79 131 -231 152 -250 3 -3 27 -32 52 -65 58 -77 152 -166 248 -236
246 -180 467 -269 765 -309 111 -14 2657 -14 2774 1 172 21 271 45 411 99 30
12 64 24 75 27 11 3 25 9 30 13 6 4 42 24 80 45 39 20 77 44 86 51 8 8 20 14
25 14 5 0 20 10 34 23 14 12 43 35 65 52 59 44 183 170 247 251 78 98 126 175
177 280 24 49 49 101 57 116 8 14 14 33 14 42 0 8 6 30 14 48 18 42 40 120 63
223 17 74 18 150 18 975 0 846 -1 899 -19 970 -66 260 -121 381 -257 560 -84
111 -260 275 -336 314 -29 15 -214 16 -2165 16 -1974 0 -2136 -2 -2168 -17z
m849 -1174 c143 -23 247 -77 342 -176 241 -250 239 -605 -5 -849 -133 -132
-257 -184 -441 -184 -171 0 -304 52 -421 165 -78 76 -113 129 -170 265 -28 64
-28 305 0 370 37 89 52 116 93 172 139 185 369 276 602 237z m2861 -3 c106
-19 176 -49 260 -112 182 -137 280 -379 235 -581 -15 -68 -23 -94 -49 -163 -3
-8 -12 -24 -18 -35 -132 -209 -316 -315 -548 -315 -126 0 -197 19 -325 87 -49
26 -170 154 -206 218 -45 80 -58 115 -76 210 -13 67 -13 94 -3 169 12 86 19
110 61 201 27 60 102 149 167 200 141 113 316 155 502 121z m-1967 -1526 c24
-11 69 -49 105 -89 47 -53 78 -77 130 -102 62 -30 74 -32 177 -32 105 -1 113
1 179 33 50 24 89 53 137 102 105 109 153 127 231 87 51 -26 60 -35 83 -79 31
-60 24 -115 -30 -209 -41 -73 -199 -199 -300 -238 -129 -51 -153 -56 -296 -56
-138 1 -195 11 -272 49 -16 8 -33 14 -37 14 -5 0 -35 16 -68 35 -148 86 -262
235 -262 340 0 52 42 115 97 144 48 26 74 26 126 1z"/>
<path d="M5233 5762 c-52 -21 -84 -49 -120 -103 -24 -37 -28 -52 -28 -116 1
-64 4 -77 31 -115 16 -24 50 -56 74 -72 38 -26 54 -30 115 -31 52 0 79 5 105
20 74 42 130 129 130 202 0 50 -46 138 -89 171 -43 34 -111 62 -149 61 -15 0
-46 -8 -69 -17z"/>
<path d="M8101 5760 c-68 -25 -106 -60 -137 -125 -32 -68 -31 -126 4 -190 78
-142 257 -166 362 -48 45 50 60 88 60 151 0 153 -150 263 -289 212z"/>
<path d="M3603 6171 c-97 -33 -195 -116 -236 -200 -22 -46 -22 -48 -22 -556 0
-470 1 -513 18 -538 9 -14 17 -32 17 -40 0 -17 108 -137 123 -137 6 0 18 -6
26 -13 27 -22 117 -49 153 -45 l33 3 3 750 c1 413 0 760 -3 773 -7 27 -38 28
-112 3z"/>
<path d="M10105 6168 c-3 -13 -4 -360 -3 -773 l3 -750 28 -3 c30 -4 133 29
175 55 44 28 107 95 129 138 47 89 47 90 51 545 4 473 -1 524 -54 615 -29 50
-97 117 -149 145 -30 17 -145 50 -172 50 -2 0 -5 -10 -8 -22z"/>
</g>
</svg>
