 <svg  version="1.0" xmlns="http://www.w3.org/2000/svg"  width="1350.000000pt" height="1350.000000pt" viewBox="0 0 1350.000000 1350.000000"  preserveAspectRatio="xMidYMid meet">  <g transform="translate(0.000000,1350.000000) scale(0.100000,-0.100000)" fill="#ffffff" stroke="none"> <path d="M4180 9830 c-137 -26 -270 -130 -332 -260 -69 -146 -65 -313 11 -460 35 -68 147 -172 222 -207 150 -71 343 -47 495 60 l41 29 44 -30 c24 -16 60 -38 79 -48 98 -53 460 -307 460 -323 0 -4 -19 -23 -42 -42 -98 -77 -238 -220 -353 -360 -23 -28 -158 -227 -168 -249 -4 -8 -23 -42 -42 -75 -63 -113 -165 -335 -165 -361 0 -8 -6 -28 -14 -46 -28 -67 -64 -213 -78 -318 -5 -41 -13 -239 -16 -439 -5 -259 -10 -365 -18 -368 -27 -9 -120 160 -158 286 -18 61 -22 285 -5 361 5 25 13 68 18 95 9 53 24 119 46 200 30 111 33 134 19 146 -14 11 -21 9 -59 -14 -213 -132 -344 -286 -408 -477 -37 -111 -48 -274 -26 -394 52 -293 247 -542 530 -678 l66 -32 7 -200 c4 -117 13 -230 22 -271 43 -195 64 -256 139 -405 57 -113 108 -196 154 -250 133 -160 263 -277 424 -385 54 -36 101 -65 104 -65 3 0 22 -13 43 -30 21 -16 41 -30 45 -30 4 0 24 -13 45 -30 21 -17 41 -30 44 -30 3 0 35 -20 72 -45 36 -25 67 -45 69 -45 2 0 74 -47 161 -105 86 -58 158 -105 159 -105 2 0 53 -34 115 -75 62 -41 114 -75 115 -75 2 0 32 -20 67 -43 35 -24 68 -46 73 -48 9 -4 307 -199 471 -309 l71 -48 39 24 c22 13 46 27 54 31 8 4 43 26 77 50 35 24 65 43 68 43 3 0 34 20 71 45 36 25 67 45 69 45 1 0 53 33 114 74 61 41 114 76 118 78 5 1 67 42 138 89 174 115 306 201 327 214 9 5 50 33 90 60 40 28 78 52 83 55 6 3 78 50 160 105 83 55 155 102 160 104 6 2 26 17 46 32 20 16 40 29 43 29 4 0 37 23 74 50 37 28 81 60 97 72 73 52 264 257 315 338 74 114 74 115 113 195 106 218 157 447 157 707 l0 156 48 23 c227 109 389 264 481 462 66 141 75 186 75 367 0 146 -3 173 -23 230 -12 36 -27 69 -32 74 -5 6 -9 17 -9 26 0 31 -100 167 -177 240 -80 77 -222 180 -248 180 -7 0 -17 -5 -20 -11 -7 -10 13 -107 40 -199 7 -25 20 -76 29 -115 63 -287 55 -458 -31 -625 -47 -91 -106 -170 -119 -157 -4 4 -9 179 -11 390 -3 375 -13 507 -45 586 -5 14 -13 43 -18 65 -9 46 -26 97 -78 231 -14 38 -65 153 -82 186 -24 47 -64 118 -81 144 -10 17 -22 37 -26 45 -52 109 -281 381 -437 519 -58 52 -106 98 -106 103 0 5 11 19 24 31 24 23 247 176 275 190 9 4 28 15 43 25 70 46 232 142 240 142 4 0 32 -16 62 -35 77 -49 140 -72 221 -79 155 -14 295 38 400 149 186 196 179 491 -15 685 -36 36 -81 72 -100 81 -109 51 -122 54 -245 54 -119 -1 -121 -1 -200 -40 -154 -77 -260 -223 -284 -394 -6 -43 -8 -44 -86 -86 -248 -131 -431 -246 -617 -387 l-117 -89 -58 30 c-177 91 -354 155 -538 195 -220 47 -254 50 -535 50 -282 1 -310 -2 -535 -50 -119 -26 -337 -94 -393 -123 -52 -28 -209 -101 -216 -101 -4 0 -46 30 -93 67 -47 36 -99 76 -117 88 -17 12 -60 42 -96 66 -36 25 -72 48 -80 52 -8 4 -27 15 -41 25 -27 17 -126 77 -164 98 -11 7 -56 30 -100 53 -115 58 -121 65 -138 146 -8 39 -27 97 -43 130 -30 63 -142 186 -185 205 -13 5 -31 14 -39 19 -68 42 -217 61 -320 41z m2805 -1185 c201 -26 267 -57 281 -131 14 -73 -48 -130 -126 -118 -116 19 -404 5 -501 -24 -93 -27 -147 -45 -179 -59 -39 -17 -232 -113 -258 -128 -120 -72 -247 -185 -371 -330 -68 -80 -169 -247 -218 -362 -20 -48 -30 -51 -87 -24 -131 60 -209 94 -296 126 -19 7 -53 19 -75 28 -22 8 -53 18 -69 23 -51 16 -53 34 -10 100 21 32 42 66 45 74 4 8 24 35 46 60 21 25 51 62 67 83 56 76 203 215 321 302 147 110 129 98 332 203 40 21 99 45 211 86 253 92 600 128 887 91z m-2035 -1469 c55 -22 192 -67 229 -76 18 -5 38 -13 44 -19 6 -6 17 -11 24 -11 21 0 230 -99 348 -165 33 -19 69 -38 80 -44 11 -5 37 -21 58 -35 21 -14 40 -26 42 -26 7 0 189 -123 250 -169 67 -50 119 -93 239 -195 94 -80 340 -328 406 -410 25 -30 52 -55 61 -56 9 0 29 17 45 38 16 20 123 132 239 247 203 204 329 314 465 407 36 25 94 65 130 90 36 24 72 47 80 51 8 4 29 16 45 26 88 57 302 165 439 222 66 28 136 57 154 65 18 8 39 14 47 14 8 0 29 6 47 14 47 19 127 44 170 51 46 9 54 -4 73 -123 12 -69 15 -216 15 -712 0 -641 -11 -933 -36 -1004 -7 -23 -14 -47 -14 -54 0 -31 -82 -199 -134 -275 -65 -95 -163 -187 -291 -272 -66 -44 -124 -82 -130 -85 -18 -9 -529 -345 -580 -381 -34 -25 -90 -60 -189 -122 -11 -7 -25 -16 -30 -20 -14 -10 -132 -88 -154 -102 -10 -5 -19 -13 -22 -16 -3 -3 -33 -22 -68 -43 -34 -21 -112 -71 -172 -112 -61 -41 -117 -74 -124 -74 -8 0 -19 7 -26 15 -7 8 -16 15 -21 15 -4 0 -36 20 -71 43 -35 24 -68 46 -73 48 -20 8 -160 104 -163 111 -2 5 -8 8 -13 8 -5 0 -38 20 -75 45 -36 25 -67 45 -69 45 -3 0 -37 22 -77 49 -159 106 -290 191 -294 191 -5 0 -66 42 -74 51 -3 3 -12 9 -20 12 -17 8 -52 30 -107 68 -68 47 -248 164 -258 168 -5 2 -26 17 -46 32 -20 16 -39 29 -43 29 -18 0 -170 115 -224 169 -55 56 -142 171 -142 188 0 4 -6 14 -13 22 -15 17 -66 138 -90 211 -40 120 -42 169 -42 975 0 775 1 793 31 893 5 16 67 10 124 -12z"/> <path d="M5483 6536 c-29 -6 -58 -17 -65 -23 -6 -7 -17 -13 -24 -13 -18 0 -65 -41 -59 -51 4 -5 15 -9 27 -9 49 0 108 -66 108 -121 0 -51 -57 -109 -109 -109 -34 0 -75 31 -104 78 -15 24 -31 42 -34 38 -10 -10 -42 -137 -43 -167 0 -70 48 -186 105 -248 51 -56 101 -87 177 -112 76 -24 127 -24 205 1 104 32 172 81 226 162 82 126 82 278 -1 406 -95 146 -237 205 -409 168z"/> <path d="M7812 6535 c-56 -14 -126 -59 -119 -78 2 -7 12 -14 23 -16 25 -5 66 -37 81 -64 38 -67 -19 -167 -94 -167 -32 0 -82 38 -103 80 -11 22 -25 40 -31 40 -24 0 -49 -85 -49 -167 0 -175 102 -314 269 -366 92 -29 193 -16 301 39 48 24 126 108 158 169 24 45 27 61 27 161 0 120 -8 146 -70 229 -60 79 -130 125 -219 143 -71 14 -105 14 -174 -3z"/> <path d="M6527 5684 c-10 -10 -8 -306 1 -322 7 -9 56 -12 213 -10 l204 3 0 165 0 165 -206 3 c-113 1 -208 -1 -212 -4z"/> <path d="M5794 5252 c-112 -38 -164 -111 -164 -231 0 -58 5 -74 33 -121 19 -32 50 -67 76 -84 40 -27 53 -30 122 -30 69 0 81 3 125 32 61 39 77 58 105 121 48 112 -9 245 -128 301 -64 30 -108 33 -169 12z"/> <path d="M7535 5252 c-71 -24 -91 -40 -131 -99 -32 -48 -34 -57 -34 -130 0 -94 20 -135 94 -197 48 -41 48 -41 130 -40 71 0 86 4 125 28 58 37 87 70 111 124 27 60 25 113 -6 177 -30 65 -84 114 -151 138 -58 21 -74 21 -138 -1z"/> <path d="M6527 5054 c-4 -4 -7 -76 -7 -159 0 -111 3 -155 13 -163 14 -12 397 -6 410 7 4 4 6 77 5 162 l-3 154 -206 3 c-113 1 -208 -1 -212 -4z"/> <path d="M6521 4421 c-18 -12 -10 -303 9 -326 11 -13 44 -15 214 -13 l201 3 0 170 0 170 -205 2 c-113 2 -211 -1 -219 -6z"/> </g> </svg> 