<?xml version="1.0" standalone="no"?>
<!DOCTYPE svg PUBLIC "-//W3C//DTD SVG 20010904//EN"
 "http://www.w3.org/TR/2001/REC-SVG-20010904/DTD/svg10.dtd">
<svg version="1.0" xmlns="http://www.w3.org/2000/svg"
 width="405.000000pt" height="405.000000pt" viewBox="0 0 405.000000 405.000000"
 preserveAspectRatio="xMidYMid meet">
<metadata>
Created by potrace 1.16, written by Peter Selinger 2001-2019
</metadata>
<g transform="translate(0.000000,405.000000) scale(0.100000,-0.100000)"
fill="#000000" stroke="none">
<path d="M1805 3948 c-191 -21 -423 -89 -610 -177 -459 -217 -824 -622 -995
-1106 -61 -175 -110 -429 -110 -576 l0 -59 99 0 98 0 6 108 c15 283 123 599
292 852 283 423 734 698 1249 761 137 17 401 6 531 -21 209 -44 418 -127 589
-235 49 -31 94 -54 100 -52 19 7 108 145 102 156 -12 19 -189 123 -291 172
-324 154 -703 218 -1060 177z"/>
<path d="M3335 3446 c-66 -30 -107 -93 -107 -166 0 -57 21 -101 64 -133 64
-48 145 -53 212 -13 121 71 111 248 -18 307 -48 22 -109 24 -151 5z"/>
<path d="M3600 2974 c-41 -26 -77 -48 -79 -50 -2 -2 24 -59 57 -126 65 -131
108 -247 137 -365 9 -40 20 -73 24 -73 16 0 183 39 188 44 8 8 -25 137 -64
251 -40 117 -160 365 -177 365 -6 0 -45 -21 -86 -46z"/>
<path d="M640 2066 l0 -816 155 0 155 0 2 459 3 459 480 -435 c264 -239 510
-462 548 -495 l67 -60 0 821 0 821 -156 0 -156 0 7 -471 c5 -312 4 -470 -2
-468 -6 2 -252 227 -547 499 -296 272 -542 497 -547 498 -5 2 -9 -311 -9 -812z"/>
<path d="M2460 2035 l0 -785 525 0 525 0 0 145 0 145 -370 0 -370 0 0 640 0
640 -155 0 -155 0 0 -785z"/>
<path d="M3752 1853 c-39 -371 -180 -699 -421 -980 -245 -285 -617 -495 -1000
-565 -155 -28 -439 -30 -586 -4 -547 98 -1015 444 -1259 930 l-52 104 -89 -38
c-49 -21 -91 -43 -93 -49 -5 -14 37 -105 100 -214 165 -289 437 -557 732 -720
665 -369 1484 -319 2092 129 369 271 631 665 740 1109 26 108 54 299 54 371
l0 44 -103 0 -103 0 -12 -117z"/>
<path d="M169 1699 c-97 -58 -105 -195 -15 -264 97 -74 232 -15 251 110 7 48
-24 117 -67 149 -41 30 -124 32 -169 5z"/>
</g>
</svg>
